<?xml version="1.0" encoding="UTF-8" standalone="no"?>
<!DOCTYPE svg PUBLIC "-//W3C//DTD SVG 1.1//EN"
 "http://www.w3.org/Graphics/SVG/1.1/DTD/svg11.dtd">
<!-- Generated by graphviz version 14.1.5 (20260411.2331)
 -->
<!-- Title: dependency&#45;cruiser output Pages: 1 -->
<svg width="295pt" height="120pt"
 viewBox="0.00 0.00 295.00 120.00" xmlns="http://www.w3.org/2000/svg" xmlns:xlink="http://www.w3.org/1999/xlink">
<g id="graph0" class="graph" transform="scale(1 1) rotate(0) translate(4 116)">
<title>dependency&#45;cruiser output</title>
<polygon fill="white" stroke="none" points="-4,4 -4,-116 291,-116 291,4 -4,4"/>
<g id="clust1" class="cluster">
<title>cluster_packages</title>
<path fill="#ffffff" stroke="black" stroke-width="2" d="M20,-8C20,-8 267,-8 267,-8 273,-8 279,-14 279,-20 279,-20 279,-92 279,-92 279,-98 273,-104 267,-104 267,-104 20,-104 20,-104 14,-104 8,-98 8,-92 8,-92 8,-20 8,-20 8,-14 14,-8 20,-8"/>
<text xml:space="preserve" text-anchor="middle" x="143.5" y="-91.45" font-family="Helvetica,sans-Serif" font-weight="bold" font-size="9.00">packages</text>
</g>
<!-- packages/core -->
<g id="node1" class="node">
<title>packages/core</title>
<g id="a_node1"><a xlink:href="packages/core" xlink:title="core">
<polygon fill="#ffffcc" stroke="black" points="271,-44.88 218.97,-44.88 217,-42.9 217,-27.12 269.03,-27.12 271,-29.1 271,-44.88"/>
<polyline fill="none" stroke="black" points="269.03,-42.9 217,-42.9"/>
<polyline fill="none" stroke="black" points="269.03,-42.9 269.03,-27.12"/>
<polyline fill="none" stroke="black" points="269.03,-42.9 271,-44.88"/>
<text xml:space="preserve" text-anchor="start" x="235" y="-33.38" font-family="Helvetica,sans-Serif" font-size="9.00">core</text>
</a>
</g>
</g>
<!-- packages/fluent -->
<g id="node2" class="node">
<title>packages/fluent</title>
<g id="a_node2"><a xlink:href="packages/fluent" xlink:title="fluent">
<polygon fill="#ffffcc" stroke="black" points="137,-33.88 84.97,-33.88 83,-31.9 83,-16.12 135.03,-16.12 137,-18.1 137,-33.88"/>
<polyline fill="none" stroke="black" points="135.03,-31.9 83,-31.9"/>
<polyline fill="none" stroke="black" points="135.03,-31.9 135.03,-16.12"/>
<polyline fill="none" stroke="black" points="135.03,-31.9 137,-33.88"/>
<text xml:space="preserve" text-anchor="start" x="98.75" y="-22.38" font-family="Helvetica,sans-Serif" font-size="9.00">fluent</text>
</a>
</g>
</g>
<!-- packages/fluent&#45;&gt;packages/core -->
<g id="edge2" class="edge">
<title>packages/fluent&#45;&gt;packages/core</title>
<path fill="none" stroke="#000000" stroke-width="2" stroke-opacity="0.200000" d="M137.47,-26.8C156.09,-28.11 181.58,-30.01 204,-32 205.78,-32.16 207.6,-32.33 209.45,-32.5"/>
<polygon fill="#000000" fill-opacity="0.200000" stroke="#000000" stroke-width="2" stroke-opacity="0.200000" points="215.38,-35.19 209.61,-32.52 215.78,-31.01 215.38,-35.19"/>
</g>
<!-- packages/runtime -->
<g id="node3" class="node">
<title>packages/runtime</title>
<g id="a_node3"><a xlink:href="packages/runtime" xlink:title="runtime">
<polygon fill="#ccffcc" stroke="black" points="204,-55.88 151.97,-55.88 150,-53.9 150,-38.12 202.03,-38.12 204,-40.1 204,-55.88"/>
<polyline fill="none" stroke="black" points="202.03,-53.9 150,-53.9"/>
<polyline fill="none" stroke="black" points="202.03,-53.9 202.03,-38.12"/>
<polyline fill="none" stroke="black" points="202.03,-53.9 204,-55.88"/>
<text xml:space="preserve" text-anchor="start" x="161.62" y="-44.38" font-family="Helvetica,sans-Serif" font-size="9.00">runtime</text>
</a>
</g>
</g>
<!-- packages/fluent&#45;&gt;packages/runtime -->
<g id="edge1" class="edge">
<title>packages/fluent&#45;&gt;packages/runtime</title>
<path fill="none" stroke="#000000" stroke-width="2" stroke-opacity="0.200000" d="M137.44,-33.95C138.71,-34.38 140,-34.82 141.29,-35.25"/>
<polygon fill="#000000" fill-opacity="0.200000" stroke="#000000" stroke-width="2" stroke-opacity="0.200000" points="140.57,-37.23 146.93,-37.16 141.92,-33.25 140.57,-37.23"/>
</g>
<!-- packages/runtime&#45;&gt;packages/core -->
<g id="edge3" class="edge">
<title>packages/runtime&#45;&gt;packages/core</title>
<path fill="none" stroke="#000000" stroke-width="2" stroke-opacity="0.200000" d="M204.44,-42.53C206.22,-42.22 208.03,-41.92 209.84,-41.61"/>
<polygon fill="#000000" fill-opacity="0.200000" stroke="#000000" stroke-width="2" stroke-opacity="0.200000" points="216.16,-42.67 209.89,-41.6 215.46,-38.53 216.16,-42.67"/>
</g>
<!-- packages/log -->
<g id="node4" class="node">
<title>packages/log</title>
<g id="a_node4"><a xlink:href="packages/log" xlink:title="log">
<polygon fill="#ffffcc" stroke="black" points="137,-77.88 84.97,-77.88 83,-75.9 83,-60.12 135.03,-60.12 137,-62.1 137,-77.88"/>
<polyline fill="none" stroke="black" points="135.03,-75.9 83,-75.9"/>
<polyline fill="none" stroke="black" points="135.03,-75.9 135.03,-60.12"/>
<polyline fill="none" stroke="black" points="135.03,-75.9 137,-77.88"/>
<text xml:space="preserve" text-anchor="start" x="103.62" y="-66.38" font-family="Helvetica,sans-Serif" font-size="9.00">log</text>
</a>
</g>
</g>
<!-- packages/store -->
<g id="node5" class="node">
<title>packages/store</title>
<g id="a_node5"><a xlink:href="packages/store" xlink:title="store">
<polygon fill="#ffffcc" stroke="black" points="70,-47.88 17.97,-47.88 16,-45.9 16,-30.12 68.03,-30.12 70,-32.1 70,-47.88"/>
<polyline fill="none" stroke="black" points="68.03,-45.9 16,-45.9"/>
<polyline fill="none" stroke="black" points="68.03,-45.9 68.03,-30.12"/>
<polyline fill="none" stroke="black" points="68.03,-45.9 70,-47.88"/>
<text xml:space="preserve" text-anchor="start" x="32.88" y="-36.38" font-family="Helvetica,sans-Serif" font-size="9.00">store</text>
</a>
</g>
</g>
<!-- packages/store&#45;&gt;packages/fluent -->
<g id="edge4" class="edge">
<title>packages/store&#45;&gt;packages/fluent</title>
<path fill="none" stroke="#000000" stroke-width="2" stroke-opacity="0.200000" d="M70.44,-33.31C71.71,-33.03 73,-32.75 74.29,-32.48"/>
<polygon fill="#000000" fill-opacity="0.200000" stroke="#000000" stroke-width="2" stroke-opacity="0.200000" points="74.41,-34.6 79.84,-31.28 73.53,-30.49 74.41,-34.6"/>
</g>
<!-- packages/store&#45;&gt;packages/runtime -->
<g id="edge6" class="edge">
<title>packages/store&#45;&gt;packages/runtime</title>
<path fill="none" stroke="#000000" stroke-width="2" stroke-opacity="0.200000" d="M70.39,-40.6C90.63,-41.83 118.75,-43.53 140.88,-44.87"/>
<polygon fill="#000000" fill-opacity="0.200000" stroke="#000000" stroke-width="2" stroke-opacity="0.200000" points="140.51,-46.95 146.63,-45.22 140.77,-42.76 140.51,-46.95"/>
</g>
<!-- packages/store&#45;&gt;packages/log -->
<g id="edge5" class="edge">
<title>packages/store&#45;&gt;packages/log</title>
<path fill="none" stroke="#000000" stroke-width="2" stroke-opacity="0.200000" d="M64.21,-48.33C69.52,-50.78 75.34,-53.46 80.98,-56.07"/>
<polygon fill="#000000" fill-opacity="0.200000" stroke="#000000" stroke-width="2" stroke-opacity="0.200000" points="79.95,-57.9 86.28,-58.51 81.71,-54.09 79.95,-57.9"/>
</g>
<!-- packages/trace -->
<g id="node6" class="node">
<title>packages/trace</title>
<g id="a_node6"><a xlink:href="packages/trace" xlink:title="trace">
<polygon fill="#ffffcc" stroke="black" points="70,-77.88 17.97,-77.88 16,-75.9 16,-60.12 68.03,-60.12 70,-62.1 70,-77.88"/>
<polyline fill="none" stroke="black" points="68.03,-75.9 16,-75.9"/>
<polyline fill="none" stroke="black" points="68.03,-75.9 68.03,-60.12"/>
<polyline fill="none" stroke="black" points="68.03,-75.9 70,-77.88"/>
<text xml:space="preserve" text-anchor="start" x="32.88" y="-66.38" font-family="Helvetica,sans-Serif" font-size="9.00">trace</text>
</a>
</g>
</g>
</g>
</svg>
