<?xml version="1.0" encoding="UTF-8" standalone="no"?>
<!DOCTYPE svg PUBLIC "-//W3C//DTD SVG 1.1//EN"
 "http://www.w3.org/Graphics/SVG/1.1/DTD/svg11.dtd">
<!-- Generated by graphviz version 14.1.5 (20260411.2331)
 -->
<!-- Title: dependency&#45;cruiser output Pages: 1 -->
<svg width="590pt" height="150pt"
 viewBox="0.00 0.00 590.00 150.00" xmlns="http://www.w3.org/2000/svg" xmlns:xlink="http://www.w3.org/1999/xlink">
<g id="graph0" class="graph" transform="scale(1 1) rotate(0) translate(4 146)">
<title>dependency&#45;cruiser output</title>
<polygon fill="white" stroke="none" points="-4,4 -4,-146 585.75,-146 585.75,4 -4,4"/>
<g id="clust1" class="cluster">
<title>cluster_packages</title>
<path fill="#ffffff" stroke="black" stroke-width="2" d="M20,-8C20,-8 561.75,-8 561.75,-8 567.75,-8 573.75,-14 573.75,-20 573.75,-20 573.75,-122 573.75,-122 573.75,-128 567.75,-134 561.75,-134 561.75,-134 20,-134 20,-134 14,-134 8,-128 8,-122 8,-122 8,-20 8,-20 8,-14 14,-8 20,-8"/>
<text xml:space="preserve" text-anchor="middle" x="290.88" y="-121.45" font-family="Helvetica,sans-Serif" font-weight="bold" font-size="9.00">packages</text>
</g>
<!-- packages/effect&#45;s2 -->
<g id="node1" class="node">
<title>packages/effect&#45;s2</title>
<g id="a_node1"><a xlink:href="packages/effect-s2" xlink:title="effect&#45;s2">
<polygon fill="#ffffcc" stroke="black" points="299.5,-77.88 247.47,-77.88 245.5,-75.9 245.5,-60.12 297.53,-60.12 299.5,-62.1 299.5,-77.88"/>
<polyline fill="none" stroke="black" points="297.53,-75.9 245.5,-75.9"/>
<polyline fill="none" stroke="black" points="297.53,-75.9 297.53,-60.12"/>
<polyline fill="none" stroke="black" points="297.53,-75.9 299.5,-77.88"/>
<text xml:space="preserve" text-anchor="start" x="255.25" y="-66.38" font-family="Helvetica,sans-Serif" font-size="9.00">effect&#45;s2</text>
</a>
</g>
</g>
<!-- packages/fluent&#45;firegrid -->
<g id="node2" class="node">
<title>packages/fluent&#45;firegrid</title>
<g id="a_node2"><a xlink:href="packages/fluent-firegrid" xlink:title="fluent&#45;firegrid">
<polygon fill="#ffffcc" stroke="black" points="307.5,-47.88 239.47,-47.88 237.5,-45.9 237.5,-30.12 305.53,-30.12 307.5,-32.1 307.5,-47.88"/>
<polyline fill="none" stroke="black" points="305.53,-45.9 237.5,-45.9"/>
<polyline fill="none" stroke="black" points="305.53,-45.9 305.53,-30.12"/>
<polyline fill="none" stroke="black" points="305.53,-45.9 307.5,-47.88"/>
<text xml:space="preserve" text-anchor="start" x="245.5" y="-36.38" font-family="Helvetica,sans-Serif" font-size="9.00">fluent&#45;firegrid</text>
</a>
</g>
</g>
<!-- packages/tanstack&#45;workflow&#45;core -->
<g id="node3" class="node">
<title>packages/tanstack&#45;workflow&#45;core</title>
<g id="a_node3"><a xlink:href="packages/tanstack-workflow-core" xlink:title="tanstack&#45;workflow&#45;core">
<polygon fill="#ffffcc" stroke="black" points="565.75,-85.88 457.97,-85.88 456,-83.9 456,-68.12 563.78,-68.12 565.75,-70.1 565.75,-85.88"/>
<polyline fill="none" stroke="black" points="563.78,-83.9 456,-83.9"/>
<polyline fill="none" stroke="black" points="563.78,-83.9 563.78,-68.12"/>
<polyline fill="none" stroke="black" points="563.78,-83.9 565.75,-85.88"/>
<text xml:space="preserve" text-anchor="start" x="464" y="-74.38" font-family="Helvetica,sans-Serif" font-size="9.00">tanstack&#45;workflow&#45;core</text>
</a>
</g>
</g>
<!-- packages/fluent&#45;firegrid&#45;&gt;packages/tanstack&#45;workflow&#45;core -->
<g id="edge1" class="edge">
<title>packages/fluent&#45;firegrid&#45;&gt;packages/tanstack&#45;workflow&#45;core</title>
<path fill="none" stroke="#000000" stroke-width="2" stroke-opacity="0.200000" d="M307.72,-42.77C342.06,-46.76 396.38,-53.62 443,-62 449.2,-63.11 455.69,-64.41 462.1,-65.76"/>
<polygon fill="#000000" fill-opacity="0.200000" stroke="#000000" stroke-width="2" stroke-opacity="0.200000" points="461.47,-67.77 467.78,-66.99 462.36,-63.67 461.47,-67.77"/>
</g>
<!-- packages/tanstack&#45;workflow&#45;runtime -->
<g id="node4" class="node">
<title>packages/tanstack&#45;workflow&#45;runtime</title>
<g id="a_node4"><a xlink:href="packages/tanstack-workflow-runtime" xlink:title="tanstack&#45;workflow&#45;runtime">
<polygon fill="#ccffcc" stroke="black" points="443,-85.88 322.47,-85.88 320.5,-83.9 320.5,-68.12 441.03,-68.12 443,-70.1 443,-85.88"/>
<polyline fill="none" stroke="black" points="441.03,-83.9 320.5,-83.9"/>
<polyline fill="none" stroke="black" points="441.03,-83.9 441.03,-68.12"/>
<polyline fill="none" stroke="black" points="441.03,-83.9 443,-85.88"/>
<text xml:space="preserve" text-anchor="start" x="328.5" y="-74.38" font-family="Helvetica,sans-Serif" font-size="9.00">tanstack&#45;workflow&#45;runtime</text>
</a>
</g>
</g>
<!-- packages/fluent&#45;firegrid&#45;&gt;packages/tanstack&#45;workflow&#45;runtime -->
<g id="edge2" class="edge">
<title>packages/fluent&#45;firegrid&#45;&gt;packages/tanstack&#45;workflow&#45;runtime</title>
<path fill="none" stroke="#000000" stroke-width="2" stroke-opacity="0.200000" d="M299.74,-48.3C313.76,-53.26 331.2,-59.44 346.3,-64.79"/>
<polygon fill="#000000" fill-opacity="0.200000" stroke="#000000" stroke-width="2" stroke-opacity="0.200000" points="345.2,-66.63 351.56,-66.66 346.61,-62.67 345.2,-66.63"/>
</g>
<!-- packages/tanstack&#45;workflow&#45;runtime&#45;&gt;packages/tanstack&#45;workflow&#45;core -->
<g id="edge10" class="edge">
<title>packages/tanstack&#45;workflow&#45;runtime&#45;&gt;packages/tanstack&#45;workflow&#45;core</title>
<path fill="none" stroke="#000000" stroke-width="2" stroke-opacity="0.200000" d="M443.33,-77C444.49,-77 445.64,-77 446.79,-77"/>
<polygon fill="#000000" fill-opacity="0.200000" stroke="#000000" stroke-width="2" stroke-opacity="0.200000" points="446.57,-79.1 452.57,-77 446.57,-74.9 446.57,-79.1"/>
</g>
<!-- packages/fluent&#45;firegrid&#45;http -->
<g id="node5" class="node">
<title>packages/fluent&#45;firegrid&#45;http</title>
<g id="a_node5"><a xlink:href="packages/fluent-firegrid-http" xlink:title="fluent&#45;firegrid&#45;http">
<polygon fill="#ffffcc" stroke="black" points="217.75,-47.88 131.72,-47.88 129.75,-45.9 129.75,-30.12 215.78,-30.12 217.75,-32.1 217.75,-47.88"/>
<polyline fill="none" stroke="black" points="215.78,-45.9 129.75,-45.9"/>
<polyline fill="none" stroke="black" points="215.78,-45.9 215.78,-30.12"/>
<polyline fill="none" stroke="black" points="215.78,-45.9 217.75,-47.88"/>
<text xml:space="preserve" text-anchor="start" x="137.75" y="-36.38" font-family="Helvetica,sans-Serif" font-size="9.00">fluent&#45;firegrid&#45;http</text>
</a>
</g>
</g>
<!-- packages/fluent&#45;firegrid&#45;http&#45;&gt;packages/fluent&#45;firegrid -->
<g id="edge3" class="edge">
<title>packages/fluent&#45;firegrid&#45;http&#45;&gt;packages/fluent&#45;firegrid</title>
<path fill="none" stroke="#000000" stroke-width="2" stroke-opacity="0.200000" d="M218.03,-39C221.45,-39 224.91,-39 228.33,-39"/>
<polygon fill="#000000" fill-opacity="0.200000" stroke="#000000" stroke-width="2" stroke-opacity="0.200000" points="228.23,-41.1 234.23,-39 228.23,-36.9 228.23,-41.1"/>
</g>
<!-- packages/fluent&#45;firegrid&#45;node -->
<g id="node6" class="node">
<title>packages/fluent&#45;firegrid&#45;node</title>
<g id="a_node6"><a xlink:href="packages/fluent-firegrid-node" xlink:title="fluent&#45;firegrid&#45;node">
<polygon fill="#ffffcc" stroke="black" points="110,-62.88 17.97,-62.88 16,-60.9 16,-45.12 108.03,-45.12 110,-47.1 110,-62.88"/>
<polyline fill="none" stroke="black" points="108.03,-60.9 16,-60.9"/>
<polyline fill="none" stroke="black" points="108.03,-60.9 108.03,-45.12"/>
<polyline fill="none" stroke="black" points="108.03,-60.9 110,-62.88"/>
<text xml:space="preserve" text-anchor="start" x="24" y="-51.38" font-family="Helvetica,sans-Serif" font-size="9.00">fluent&#45;firegrid&#45;node</text>
</a>
</g>
</g>
<!-- packages/fluent&#45;firegrid&#45;node&#45;&gt;packages/fluent&#45;firegrid -->
<g id="edge4" class="edge">
<title>packages/fluent&#45;firegrid&#45;node&#45;&gt;packages/fluent&#45;firegrid</title>
<path fill="none" stroke="#000000" stroke-width="2" stroke-opacity="0.200000" d="M77.35,-44.9C88.86,-37.63 106.24,-28.02 123,-24 166.87,-13.49 179.93,-17.06 224.5,-24 229.26,-24.74 234.2,-25.88 239.01,-27.21"/>
<polygon fill="#000000" fill-opacity="0.200000" stroke="#000000" stroke-width="2" stroke-opacity="0.200000" points="238.2,-29.16 244.55,-28.88 239.41,-25.14 238.2,-29.16"/>
</g>
<!-- packages/fluent&#45;firegrid&#45;node&#45;&gt;packages/fluent&#45;firegrid&#45;http -->
<g id="edge5" class="edge">
<title>packages/fluent&#45;firegrid&#45;node&#45;&gt;packages/fluent&#45;firegrid&#45;http</title>
<path fill="none" stroke="#000000" stroke-width="2" stroke-opacity="0.200000" d="M110.44,-47.6C113.91,-47.12 117.43,-46.63 120.93,-46.15"/>
<polygon fill="#000000" fill-opacity="0.200000" stroke="#000000" stroke-width="2" stroke-opacity="0.200000" points="120.92,-48.27 126.57,-45.37 120.34,-44.11 120.92,-48.27"/>
</g>
<!-- packages/fluent&#45;firegrid&#45;s2 -->
<g id="node7" class="node">
<title>packages/fluent&#45;firegrid&#45;s2</title>
<g id="a_node7"><a xlink:href="packages/fluent-firegrid-s2" xlink:title="fluent&#45;firegrid&#45;s2">
<polygon fill="#ffffcc" stroke="black" points="215.12,-77.88 134.35,-77.88 132.38,-75.9 132.38,-60.12 213.15,-60.12 215.12,-62.1 215.12,-77.88"/>
<polyline fill="none" stroke="black" points="213.15,-75.9 132.38,-75.9"/>
<polyline fill="none" stroke="black" points="213.15,-75.9 213.15,-60.12"/>
<polyline fill="none" stroke="black" points="213.15,-75.9 215.12,-77.88"/>
<text xml:space="preserve" text-anchor="start" x="140.38" y="-66.38" font-family="Helvetica,sans-Serif" font-size="9.00">fluent&#45;firegrid&#45;s2</text>
</a>
</g>
</g>
<!-- packages/fluent&#45;firegrid&#45;node&#45;&gt;packages/fluent&#45;firegrid&#45;s2 -->
<g id="edge6" class="edge">
<title>packages/fluent&#45;firegrid&#45;node&#45;&gt;packages/fluent&#45;firegrid&#45;s2</title>
<path fill="none" stroke="#000000" stroke-width="2" stroke-opacity="0.200000" d="M110.44,-60.4C114.69,-60.99 119,-61.59 123.28,-62.18"/>
<polygon fill="#000000" fill-opacity="0.200000" stroke="#000000" stroke-width="2" stroke-opacity="0.200000" points="122.73,-64.22 128.96,-62.96 123.31,-60.06 122.73,-64.22"/>
</g>
<!-- packages/tanstack&#45;workflow&#45;s2 -->
<g id="node8" class="node">
<title>packages/tanstack&#45;workflow&#45;s2</title>
<g id="a_node8"><a xlink:href="packages/tanstack-workflow-s2" xlink:title="tanstack&#45;workflow&#45;s2">
<polygon fill="#ffffcc" stroke="black" points="224.5,-107.88 124.97,-107.88 123,-105.9 123,-90.12 222.53,-90.12 224.5,-92.1 224.5,-107.88"/>
<polyline fill="none" stroke="black" points="222.53,-105.9 123,-105.9"/>
<polyline fill="none" stroke="black" points="222.53,-105.9 222.53,-90.12"/>
<polyline fill="none" stroke="black" points="222.53,-105.9 224.5,-107.88"/>
<text xml:space="preserve" text-anchor="start" x="131" y="-96.38" font-family="Helvetica,sans-Serif" font-size="9.00">tanstack&#45;workflow&#45;s2</text>
</a>
</g>
</g>
<!-- packages/fluent&#45;firegrid&#45;node&#45;&gt;packages/tanstack&#45;workflow&#45;s2 -->
<g id="edge7" class="edge">
<title>packages/fluent&#45;firegrid&#45;node&#45;&gt;packages/tanstack&#45;workflow&#45;s2</title>
<path fill="none" stroke="#000000" stroke-width="2" stroke-opacity="0.200000" d="M80.42,-63.34C92.06,-69.72 108.18,-78.05 123,-84 125.35,-84.94 127.79,-85.86 130.27,-86.75"/>
<polygon fill="#000000" fill-opacity="0.200000" stroke="#000000" stroke-width="2" stroke-opacity="0.200000" points="129.53,-88.72 135.88,-88.66 130.88,-84.74 129.53,-88.72"/>
</g>
<!-- packages/fluent&#45;firegrid&#45;s2&#45;&gt;packages/effect&#45;s2 -->
<g id="edge9" class="edge">
<title>packages/fluent&#45;firegrid&#45;s2&#45;&gt;packages/effect&#45;s2</title>
<path fill="none" stroke="#000000" stroke-width="2" stroke-opacity="0.200000" d="M215.5,-69C222.39,-69 229.49,-69 236.22,-69"/>
<polygon fill="#000000" fill-opacity="0.200000" stroke="#000000" stroke-width="2" stroke-opacity="0.200000" points="236.09,-71.1 242.09,-69 236.09,-66.9 236.09,-71.1"/>
</g>
<!-- packages/fluent&#45;firegrid&#45;s2&#45;&gt;packages/fluent&#45;firegrid -->
<g id="edge8" class="edge">
<title>packages/fluent&#45;firegrid&#45;s2&#45;&gt;packages/fluent&#45;firegrid</title>
<path fill="none" stroke="#000000" stroke-width="2" stroke-opacity="0.200000" d="M206.09,-59.63C212.2,-57.78 218.56,-55.84 224.5,-54 227.59,-53.04 230.78,-52.04 233.99,-51.03"/>
<polygon fill="#000000" fill-opacity="0.200000" stroke="#000000" stroke-width="2" stroke-opacity="0.200000" points="234.47,-53.08 239.55,-49.27 233.2,-49.08 234.47,-53.08"/>
</g>
<!-- packages/tanstack&#45;workflow&#45;s2&#45;&gt;packages/effect&#45;s2 -->
<g id="edge11" class="edge">
<title>packages/tanstack&#45;workflow&#45;s2&#45;&gt;packages/effect&#45;s2</title>
<path fill="none" stroke="#000000" stroke-width="2" stroke-opacity="0.200000" d="M206.09,-89.63C212.2,-87.78 218.56,-85.84 224.5,-84 228.48,-82.76 232.65,-81.46 236.79,-80.15"/>
<polygon fill="#000000" fill-opacity="0.200000" stroke="#000000" stroke-width="2" stroke-opacity="0.200000" points="237.21,-82.22 242.29,-78.4 235.93,-78.22 237.21,-82.22"/>
</g>
<!-- packages/tanstack&#45;workflow&#45;s2&#45;&gt;packages/tanstack&#45;workflow&#45;core -->
<g id="edge13" class="edge">
<title>packages/tanstack&#45;workflow&#45;s2&#45;&gt;packages/tanstack&#45;workflow&#45;core</title>
<path fill="none" stroke="#000000" stroke-width="2" stroke-opacity="0.200000" d="M224.9,-100.59C278.95,-101.63 367.41,-101.37 443,-92 451.03,-91 459.5,-89.48 467.63,-87.78"/>
<polygon fill="#000000" fill-opacity="0.200000" stroke="#000000" stroke-width="2" stroke-opacity="0.200000" points="473.82,-88.58 467.51,-87.8 472.93,-84.48 473.82,-88.58"/>
</g>
<!-- packages/tanstack&#45;workflow&#45;s2&#45;&gt;packages/tanstack&#45;workflow&#45;runtime -->
<g id="edge12" class="edge">
<title>packages/tanstack&#45;workflow&#45;s2&#45;&gt;packages/tanstack&#45;workflow&#45;runtime</title>
<path fill="none" stroke="#000000" stroke-width="2" stroke-opacity="0.200000" d="M224.88,-93.65C250.89,-90.87 283.07,-87.43 311.43,-84.4"/>
<polygon fill="#000000" fill-opacity="0.200000" stroke="#000000" stroke-width="2" stroke-opacity="0.200000" points="311.34,-86.52 317.09,-83.8 310.9,-82.35 311.34,-86.52"/>
</g>
</g>
</svg>
