<?xml version="1.0" encoding="UTF-8" standalone="no"?>
<!DOCTYPE svg PUBLIC "-//W3C//DTD SVG 1.1//EN"
 "http://www.w3.org/Graphics/SVG/1.1/DTD/svg11.dtd">
<!-- Generated by graphviz version 14.1.5 (20260411.2331)
 -->
<!-- Title: dependency&#45;cruiser output Pages: 1 -->
<svg width="228pt" height="164pt"
 viewBox="0.00 0.00 228.00 164.00" xmlns="http://www.w3.org/2000/svg" xmlns:xlink="http://www.w3.org/1999/xlink">
<g id="graph0" class="graph" transform="scale(1 1) rotate(0) translate(4 160)">
<title>dependency&#45;cruiser output</title>
<polygon fill="white" stroke="none" points="-4,4 -4,-160 224,-160 224,4 -4,4"/>
<g id="clust1" class="cluster">
<title>cluster_packages</title>
<path fill="#ffffff" stroke="black" stroke-width="2" d="M20,-8C20,-8 200,-8 200,-8 206,-8 212,-14 212,-20 212,-20 212,-136 212,-136 212,-142 206,-148 200,-148 200,-148 20,-148 20,-148 14,-148 8,-142 8,-136 8,-136 8,-20 8,-20 8,-14 14,-8 20,-8"/>
<text xml:space="preserve" text-anchor="middle" x="110" y="-135.45" font-family="Helvetica,sans-Serif" font-weight="bold" font-size="9.00">packages</text>
</g>
<!-- packages/clients -->
<g id="node1" class="node">
<title>packages/clients</title>
<g id="a_node1"><a xlink:href="packages/clients" xlink:title="clients">
<polygon fill="#ffffcc" stroke="black" points="137,-33.88 84.97,-33.88 83,-31.9 83,-16.12 135.03,-16.12 137,-18.1 137,-33.88"/>
<polyline fill="none" stroke="black" points="135.03,-31.9 83,-31.9"/>
<polyline fill="none" stroke="black" points="135.03,-31.9 135.03,-16.12"/>
<polyline fill="none" stroke="black" points="135.03,-31.9 137,-33.88"/>
<text xml:space="preserve" text-anchor="start" x="96.88" y="-22.38" font-family="Helvetica,sans-Serif" font-size="9.00">clients</text>
</a>
</g>
</g>
<!-- packages/core -->
<g id="node2" class="node">
<title>packages/core</title>
<g id="a_node2"><a xlink:href="packages/core" xlink:title="core">
<polygon fill="#ffffcc" stroke="black" points="204,-66.88 151.97,-66.88 150,-64.9 150,-49.12 202.03,-49.12 204,-51.1 204,-66.88"/>
<polyline fill="none" stroke="black" points="202.03,-64.9 150,-64.9"/>
<polyline fill="none" stroke="black" points="202.03,-64.9 202.03,-49.12"/>
<polyline fill="none" stroke="black" points="202.03,-64.9 204,-66.88"/>
<text xml:space="preserve" text-anchor="start" x="168" y="-55.38" font-family="Helvetica,sans-Serif" font-size="9.00">core</text>
</a>
</g>
</g>
<!-- packages/clients&#45;&gt;packages/core -->
<g id="edge1" class="edge">
<title>packages/clients&#45;&gt;packages/core</title>
<path fill="none" stroke="#000000" stroke-width="2" stroke-opacity="0.200000" d="M129.45,-34.37C135.82,-37.6 143.08,-41.28 149.93,-44.77"/>
<polygon fill="#000000" fill-opacity="0.200000" stroke="#000000" stroke-width="2" stroke-opacity="0.200000" points="148.73,-46.51 155.03,-47.35 150.63,-42.76 148.73,-46.51"/>
</g>
<!-- packages/fluent -->
<g id="node3" class="node">
<title>packages/fluent</title>
<g id="a_node3"><a xlink:href="packages/fluent" xlink:title="fluent">
<polygon fill="#ffffcc" stroke="black" points="70,-55.88 17.97,-55.88 16,-53.9 16,-38.12 68.03,-38.12 70,-40.1 70,-55.88"/>
<polyline fill="none" stroke="black" points="68.03,-53.9 16,-53.9"/>
<polyline fill="none" stroke="black" points="68.03,-53.9 68.03,-38.12"/>
<polyline fill="none" stroke="black" points="68.03,-53.9 70,-55.88"/>
<text xml:space="preserve" text-anchor="start" x="31.75" y="-44.38" font-family="Helvetica,sans-Serif" font-size="9.00">fluent</text>
</a>
</g>
</g>
<!-- packages/fluent&#45;&gt;packages/clients -->
<g id="edge4" class="edge">
<title>packages/fluent&#45;&gt;packages/clients</title>
<path fill="none" stroke="#000000" stroke-width="2" stroke-opacity="0.200000" d="M70.44,-38.05C71.71,-37.62 73,-37.18 74.29,-36.75"/>
<polygon fill="#000000" fill-opacity="0.200000" stroke="#000000" stroke-width="2" stroke-opacity="0.200000" points="74.92,-38.75 79.93,-34.84 73.57,-34.77 74.92,-38.75"/>
</g>
<!-- packages/fluent&#45;&gt;packages/core -->
<g id="edge2" class="edge">
<title>packages/fluent&#45;&gt;packages/core</title>
<path fill="none" stroke="#000000" stroke-width="2" stroke-opacity="0.200000" d="M70.47,-48.8C89.09,-50.11 114.58,-52.01 137,-54 138.27,-54.11 139.57,-54.23 140.87,-54.35"/>
<polygon fill="#000000" fill-opacity="0.200000" stroke="#000000" stroke-width="2" stroke-opacity="0.200000" points="140.39,-56.42 146.56,-54.9 140.79,-52.23 140.39,-56.42"/>
</g>
<!-- packages/runtime -->
<g id="node4" class="node">
<title>packages/runtime</title>
<g id="a_node4"><a xlink:href="packages/runtime" xlink:title="runtime">
<polygon fill="#ccffcc" stroke="black" points="137,-77.88 84.97,-77.88 83,-75.9 83,-60.12 135.03,-60.12 137,-62.1 137,-77.88"/>
<polyline fill="none" stroke="black" points="135.03,-75.9 83,-75.9"/>
<polyline fill="none" stroke="black" points="135.03,-75.9 135.03,-60.12"/>
<polyline fill="none" stroke="black" points="135.03,-75.9 137,-77.88"/>
<text xml:space="preserve" text-anchor="start" x="94.62" y="-66.38" font-family="Helvetica,sans-Serif" font-size="9.00">runtime</text>
</a>
</g>
</g>
<!-- packages/fluent&#45;&gt;packages/runtime -->
<g id="edge3" class="edge">
<title>packages/fluent&#45;&gt;packages/runtime</title>
<path fill="none" stroke="#000000" stroke-width="2" stroke-opacity="0.200000" d="M70.44,-55.95C71.71,-56.38 73,-56.82 74.29,-57.25"/>
<polygon fill="#000000" fill-opacity="0.200000" stroke="#000000" stroke-width="2" stroke-opacity="0.200000" points="73.57,-59.23 79.93,-59.16 74.92,-55.25 73.57,-59.23"/>
</g>
<!-- packages/runtime&#45;&gt;packages/core -->
<g id="edge5" class="edge">
<title>packages/runtime&#45;&gt;packages/core</title>
<path fill="none" stroke="#000000" stroke-width="2" stroke-opacity="0.200000" d="M137.44,-64.53C139.22,-64.22 141.03,-63.92 142.84,-63.61"/>
<polygon fill="#000000" fill-opacity="0.200000" stroke="#000000" stroke-width="2" stroke-opacity="0.200000" points="149.16,-64.67 142.89,-63.6 148.46,-60.53 149.16,-64.67"/>
</g>
<!-- packages/log -->
<g id="node5" class="node">
<title>packages/log</title>
<g id="a_node5"><a xlink:href="packages/log" xlink:title="log">
<polygon fill="#ffffcc" stroke="black" points="137,-121.88 84.97,-121.88 83,-119.9 83,-104.12 135.03,-104.12 137,-106.1 137,-121.88"/>
<polyline fill="none" stroke="black" points="135.03,-119.9 83,-119.9"/>
<polyline fill="none" stroke="black" points="135.03,-119.9 135.03,-104.12"/>
<polyline fill="none" stroke="black" points="135.03,-119.9 137,-121.88"/>
<text xml:space="preserve" text-anchor="start" x="103.62" y="-110.38" font-family="Helvetica,sans-Serif" font-size="9.00">log</text>
</a>
</g>
</g>
<!-- packages/store -->
<g id="node6" class="node">
<title>packages/store</title>
<g id="a_node6"><a xlink:href="packages/store" xlink:title="store">
<polygon fill="#ffffcc" stroke="black" points="70,-91.88 17.97,-91.88 16,-89.9 16,-74.12 68.03,-74.12 70,-76.1 70,-91.88"/>
<polyline fill="none" stroke="black" points="68.03,-89.9 16,-89.9"/>
<polyline fill="none" stroke="black" points="68.03,-89.9 68.03,-74.12"/>
<polyline fill="none" stroke="black" points="68.03,-89.9 70,-91.88"/>
<text xml:space="preserve" text-anchor="start" x="32.88" y="-80.38" font-family="Helvetica,sans-Serif" font-size="9.00">store</text>
</a>
</g>
</g>
<!-- packages/store&#45;&gt;packages/core -->
<g id="edge6" class="edge">
<title>packages/store&#45;&gt;packages/core</title>
<path fill="none" stroke="#000000" stroke-width="2" stroke-opacity="0.200000" d="M70.25,-87.42C89.21,-89.62 115.21,-90.6 137,-84 144.84,-81.63 152.54,-77.1 159,-72.48"/>
<polygon fill="#000000" fill-opacity="0.200000" stroke="#000000" stroke-width="2" stroke-opacity="0.200000" points="160.07,-74.31 163.55,-68.99 157.51,-70.98 160.07,-74.31"/>
</g>
<!-- packages/store&#45;&gt;packages/runtime -->
<g id="edge8" class="edge">
<title>packages/store&#45;&gt;packages/runtime</title>
<path fill="none" stroke="#000000" stroke-width="2" stroke-opacity="0.200000" d="M70.44,-77.31C71.71,-77.03 73,-76.75 74.29,-76.48"/>
<polygon fill="#000000" fill-opacity="0.200000" stroke="#000000" stroke-width="2" stroke-opacity="0.200000" points="74.41,-78.6 79.84,-75.28 73.53,-74.49 74.41,-78.6"/>
</g>
<!-- packages/store&#45;&gt;packages/log -->
<g id="edge7" class="edge">
<title>packages/store&#45;&gt;packages/log</title>
<path fill="none" stroke="#000000" stroke-width="2" stroke-opacity="0.200000" d="M64.21,-92.33C69.52,-94.78 75.34,-97.46 80.98,-100.07"/>
<polygon fill="#000000" fill-opacity="0.200000" stroke="#000000" stroke-width="2" stroke-opacity="0.200000" points="79.95,-101.9 86.28,-102.51 81.71,-98.09 79.95,-101.9"/>
</g>
<!-- packages/trace -->
<g id="node7" class="node">
<title>packages/trace</title>
<g id="a_node7"><a xlink:href="packages/trace" xlink:title="trace">
<polygon fill="#ffffcc" stroke="black" points="70,-121.88 17.97,-121.88 16,-119.9 16,-104.12 68.03,-104.12 70,-106.1 70,-121.88"/>
<polyline fill="none" stroke="black" points="68.03,-119.9 16,-119.9"/>
<polyline fill="none" stroke="black" points="68.03,-119.9 68.03,-104.12"/>
<polyline fill="none" stroke="black" points="68.03,-119.9 70,-121.88"/>
<text xml:space="preserve" text-anchor="start" x="32.88" y="-110.38" font-family="Helvetica,sans-Serif" font-size="9.00">trace</text>
</a>
</g>
</g>
</g>
</svg>
