<?xml version="1.0" encoding="UTF-8" standalone="no"?>
<!DOCTYPE svg PUBLIC "-//W3C//DTD SVG 1.1//EN"
 "http://www.w3.org/Graphics/SVG/1.1/DTD/svg11.dtd">
<!-- Generated by graphviz version 14.1.5 (20260411.2331)
 -->
<!-- Title: dependency&#45;cruiser output Pages: 1 -->
<svg width="161pt" height="106pt"
 viewBox="0.00 0.00 161.00 106.00" xmlns="http://www.w3.org/2000/svg" xmlns:xlink="http://www.w3.org/1999/xlink">
<g id="graph0" class="graph" transform="scale(1 1) rotate(0) translate(4 102)">
<title>dependency&#45;cruiser output</title>
<polygon fill="white" stroke="none" points="-4,4 -4,-102 157,-102 157,4 -4,4"/>
<g id="clust1" class="cluster">
<title>cluster_packages</title>
<path fill="#ffffff" stroke="black" stroke-width="2" d="M20,-8C20,-8 133,-8 133,-8 139,-8 145,-14 145,-20 145,-20 145,-78 145,-78 145,-84 139,-90 133,-90 133,-90 20,-90 20,-90 14,-90 8,-84 8,-78 8,-78 8,-20 8,-20 8,-14 14,-8 20,-8"/>
<text xml:space="preserve" text-anchor="middle" x="76.5" y="-77.45" font-family="Helvetica,sans-Serif" font-weight="bold" font-size="9.00">packages</text>
</g>
<!-- packages/core -->
<g id="node1" class="node">
<title>packages/core</title>
<g id="a_node1"><a xlink:href="packages/core" xlink:title="core">
<polygon fill="#ffffcc" stroke="black" points="137,-33.88 84.97,-33.88 83,-31.9 83,-16.12 135.03,-16.12 137,-18.1 137,-33.88"/>
<polyline fill="none" stroke="black" points="135.03,-31.9 83,-31.9"/>
<polyline fill="none" stroke="black" points="135.03,-31.9 135.03,-16.12"/>
<polyline fill="none" stroke="black" points="135.03,-31.9 137,-33.88"/>
<text xml:space="preserve" text-anchor="start" x="101" y="-22.38" font-family="Helvetica,sans-Serif" font-size="9.00">core</text>
</a>
</g>
</g>
<!-- packages/fluent -->
<g id="node2" class="node">
<title>packages/fluent</title>
<g id="a_node2"><a xlink:href="packages/fluent" xlink:title="fluent">
<polygon fill="#ffffcc" stroke="black" points="70,-33.88 17.97,-33.88 16,-31.9 16,-16.12 68.03,-16.12 70,-18.1 70,-33.88"/>
<polyline fill="none" stroke="black" points="68.03,-31.9 16,-31.9"/>
<polyline fill="none" stroke="black" points="68.03,-31.9 68.03,-16.12"/>
<polyline fill="none" stroke="black" points="68.03,-31.9 70,-33.88"/>
<text xml:space="preserve" text-anchor="start" x="31.75" y="-22.38" font-family="Helvetica,sans-Serif" font-size="9.00">fluent</text>
</a>
</g>
</g>
<!-- packages/fluent&#45;&gt;packages/core -->
<g id="edge1" class="edge">
<title>packages/fluent&#45;&gt;packages/core</title>
<path fill="none" stroke="#000000" stroke-width="2" stroke-opacity="0.200000" d="M70.44,-25C71.58,-25 72.74,-25 73.9,-25"/>
<polygon fill="#000000" fill-opacity="0.200000" stroke="#000000" stroke-width="2" stroke-opacity="0.200000" points="73.77,-27.1 79.77,-25 73.77,-22.9 73.77,-27.1"/>
</g>
<!-- packages/log -->
<g id="node3" class="node">
<title>packages/log</title>
<g id="a_node3"><a xlink:href="packages/log" xlink:title="log">
<polygon fill="#ffffcc" stroke="black" points="137,-63.88 84.97,-63.88 83,-61.9 83,-46.12 135.03,-46.12 137,-48.1 137,-63.88"/>
<polyline fill="none" stroke="black" points="135.03,-61.9 83,-61.9"/>
<polyline fill="none" stroke="black" points="135.03,-61.9 135.03,-46.12"/>
<polyline fill="none" stroke="black" points="135.03,-61.9 137,-63.88"/>
<text xml:space="preserve" text-anchor="start" x="103.62" y="-52.38" font-family="Helvetica,sans-Serif" font-size="9.00">log</text>
</a>
</g>
</g>
<!-- packages/fluent&#45;&gt;packages/log -->
<g id="edge2" class="edge">
<title>packages/fluent&#45;&gt;packages/log</title>
<path fill="none" stroke="#000000" stroke-width="2" stroke-opacity="0.200000" d="M64.21,-34.33C69.52,-36.78 75.34,-39.46 80.98,-42.07"/>
<polygon fill="#000000" fill-opacity="0.200000" stroke="#000000" stroke-width="2" stroke-opacity="0.200000" points="79.95,-43.9 86.28,-44.51 81.71,-40.09 79.95,-43.9"/>
</g>
<!-- packages/trace -->
<g id="node4" class="node">
<title>packages/trace</title>
<g id="a_node4"><a xlink:href="packages/trace" xlink:title="trace">
<polygon fill="#ffffcc" stroke="black" points="70,-63.88 17.97,-63.88 16,-61.9 16,-46.12 68.03,-46.12 70,-48.1 70,-63.88"/>
<polyline fill="none" stroke="black" points="68.03,-61.9 16,-61.9"/>
<polyline fill="none" stroke="black" points="68.03,-61.9 68.03,-46.12"/>
<polyline fill="none" stroke="black" points="68.03,-61.9 70,-63.88"/>
<text xml:space="preserve" text-anchor="start" x="32.88" y="-52.38" font-family="Helvetica,sans-Serif" font-size="9.00">trace</text>
</a>
</g>
</g>
</g>
</svg>
