<?xml version="1.0" encoding="UTF-8" standalone="no"?>
<!DOCTYPE svg PUBLIC "-//W3C//DTD SVG 1.1//EN"
 "http://www.w3.org/Graphics/SVG/1.1/DTD/svg11.dtd">
<!-- Generated by graphviz version 14.1.5 (20260411.2331)
 -->
<!-- Title: dependency&#45;cruiser output Pages: 1 -->
<svg width="1084pt" height="680pt"
 viewBox="0.00 0.00 1084.00 680.00" xmlns="http://www.w3.org/2000/svg" xmlns:xlink="http://www.w3.org/1999/xlink">
<g id="graph0" class="graph" transform="scale(1 1) rotate(0) translate(4 676)">
<title>dependency&#45;cruiser output</title>
<polygon fill="white" stroke="none" points="-4,4 -4,-676 1080.38,-676 1080.38,4 -4,4"/>
<g id="clust1" class="cluster">
<title>cluster_packages</title>
<path fill="#ffffff" stroke="black" stroke-width="2" d="M20,-8C20,-8 1056.38,-8 1056.38,-8 1062.38,-8 1068.38,-14 1068.38,-20 1068.38,-20 1068.38,-652 1068.38,-652 1068.38,-658 1062.38,-664 1056.38,-664 1056.38,-664 20,-664 20,-664 14,-664 8,-658 8,-652 8,-652 8,-20 8,-20 8,-14 14,-8 20,-8"/>
<text xml:space="preserve" text-anchor="middle" x="538.19" y="-651.45" font-family="Helvetica,sans-Serif" font-weight="bold" font-size="9.00">packages</text>
</g>
<g id="clust2" class="cluster">
<title>cluster_packages/core</title>
<path fill="#ffffff" stroke="black" stroke-width="2" d="M665.12,-198C665.12,-198 1048.38,-198 1048.38,-198 1054.38,-198 1060.38,-204 1060.38,-210 1060.38,-210 1060.38,-626 1060.38,-626 1060.38,-632 1054.38,-638 1048.38,-638 1048.38,-638 665.12,-638 665.12,-638 659.12,-638 653.12,-632 653.12,-626 653.12,-626 653.12,-210 653.12,-210 653.12,-204 659.12,-198 665.12,-198"/>
<text xml:space="preserve" text-anchor="middle" x="856.75" y="-625.45" font-family="Helvetica,sans-Serif" font-weight="bold" font-size="9.00">core</text>
</g>
<g id="clust3" class="cluster">
<title>cluster_packages/core/src</title>
<path fill="#ffffff" stroke="black" stroke-width="2" d="M673.12,-206C673.12,-206 1040.38,-206 1040.38,-206 1046.38,-206 1052.38,-212 1052.38,-218 1052.38,-218 1052.38,-600 1052.38,-600 1052.38,-606 1046.38,-612 1040.38,-612 1040.38,-612 673.12,-612 673.12,-612 667.12,-612 661.12,-606 661.12,-600 661.12,-600 661.12,-218 661.12,-218 661.12,-212 667.12,-206 673.12,-206"/>
<text xml:space="preserve" text-anchor="middle" x="856.75" y="-599.45" font-family="Helvetica,sans-Serif" font-weight="bold" font-size="9.00">src</text>
</g>
<g id="clust4" class="cluster">
<title>cluster_packages/core/src/define</title>
<path fill="#ffffff" stroke="black" stroke-width="2" d="M786.62,-214C786.62,-214 867.38,-214 867.38,-214 873.38,-214 879.38,-220 879.38,-226 879.38,-226 879.38,-254 879.38,-254 879.38,-260 873.38,-266 867.38,-266 867.38,-266 786.62,-266 786.62,-266 780.62,-266 774.62,-260 774.62,-254 774.62,-254 774.62,-226 774.62,-226 774.62,-220 780.62,-214 786.62,-214"/>
<text xml:space="preserve" text-anchor="middle" x="827" y="-253.45" font-family="Helvetica,sans-Serif" font-weight="bold" font-size="9.00">define</text>
</g>
<g id="clust5" class="cluster">
<title>cluster_packages/core/src/engine</title>
<path fill="#ffffff" stroke="black" stroke-width="2" d="M784,-274C784,-274 970.38,-274 970.38,-274 976.38,-274 982.38,-280 982.38,-286 982.38,-286 982.38,-314 982.38,-314 982.38,-320 976.38,-326 970.38,-326 970.38,-326 784,-326 784,-326 778,-326 772,-320 772,-314 772,-314 772,-286 772,-286 772,-280 778,-274 784,-274"/>
<text xml:space="preserve" text-anchor="middle" x="877.19" y="-313.45" font-family="Helvetica,sans-Serif" font-weight="bold" font-size="9.00">engine</text>
</g>
<g id="clust6" class="cluster">
<title>cluster_packages/core/src/middleware</title>
<path fill="#ffffff" stroke="black" stroke-width="2" d="M780.25,-374C780.25,-374 873.75,-374 873.75,-374 879.75,-374 885.75,-380 885.75,-386 885.75,-386 885.75,-414 885.75,-414 885.75,-420 879.75,-426 873.75,-426 873.75,-426 780.25,-426 780.25,-426 774.25,-426 768.25,-420 768.25,-414 768.25,-414 768.25,-386 768.25,-386 768.25,-380 774.25,-374 780.25,-374"/>
<text xml:space="preserve" text-anchor="middle" x="827" y="-413.45" font-family="Helvetica,sans-Serif" font-weight="bold" font-size="9.00">middleware</text>
</g>
<g id="clust7" class="cluster">
<title>cluster_packages/core/src/registry</title>
<path fill="#ffffff" stroke="black" stroke-width="2" d="M790,-434C790,-434 864,-434 864,-434 870,-434 876,-440 876,-446 876,-446 876,-474 876,-474 876,-480 870,-486 864,-486 864,-486 790,-486 790,-486 784,-486 778,-480 778,-474 778,-474 778,-446 778,-446 778,-440 784,-434 790,-434"/>
<text xml:space="preserve" text-anchor="middle" x="827" y="-473.45" font-family="Helvetica,sans-Serif" font-weight="bold" font-size="9.00">registry</text>
</g>
<g id="clust8" class="cluster">
<title>cluster_packages/core/src/run&#45;store</title>
<path fill="#ffffff" stroke="black" stroke-width="2" d="M905.75,-426C905.75,-426 966.25,-426 966.25,-426 972.25,-426 978.25,-432 978.25,-438 978.25,-438 978.25,-466 978.25,-466 978.25,-472 972.25,-478 966.25,-478 966.25,-478 905.75,-478 905.75,-478 899.75,-478 893.75,-472 893.75,-466 893.75,-466 893.75,-438 893.75,-438 893.75,-432 899.75,-426 905.75,-426"/>
<text xml:space="preserve" text-anchor="middle" x="936" y="-465.45" font-family="Helvetica,sans-Serif" font-weight="bold" font-size="9.00">run&#45;store</text>
</g>
<g id="clust9" class="cluster">
<title>cluster_packages/core/src/server</title>
<path fill="#ffffff" stroke="black" stroke-width="2" d="M804,-534C804,-534 850,-534 850,-534 856,-534 862,-540 862,-546 862,-546 862,-574 862,-574 862,-580 856,-586 850,-586 850,-586 804,-586 804,-586 798,-586 792,-580 792,-574 792,-574 792,-546 792,-546 792,-540 798,-534 804,-534"/>
<text xml:space="preserve" text-anchor="middle" x="827" y="-573.45" font-family="Helvetica,sans-Serif" font-weight="bold" font-size="9.00">server</text>
</g>
<g id="clust10" class="cluster">
<title>cluster_packages/fluent</title>
<path fill="#ffffff" stroke="black" stroke-width="2" d="M28,-23C28,-23 293.5,-23 293.5,-23 299.5,-23 305.5,-29 305.5,-35 305.5,-35 305.5,-141 305.5,-141 305.5,-147 299.5,-153 293.5,-153 293.5,-153 28,-153 28,-153 22,-153 16,-147 16,-141 16,-141 16,-35 16,-35 16,-29 22,-23 28,-23"/>
<text xml:space="preserve" text-anchor="middle" x="160.75" y="-140.45" font-family="Helvetica,sans-Serif" font-weight="bold" font-size="9.00">fluent</text>
</g>
<g id="clust11" class="cluster">
<title>cluster_packages/fluent/src</title>
<path fill="#ffffff" stroke="black" stroke-width="2" d="M36,-31C36,-31 285.5,-31 285.5,-31 291.5,-31 297.5,-37 297.5,-43 297.5,-43 297.5,-115 297.5,-115 297.5,-121 291.5,-127 285.5,-127 285.5,-127 36,-127 36,-127 30,-127 24,-121 24,-115 24,-115 24,-43 24,-43 24,-37 30,-31 36,-31"/>
<text xml:space="preserve" text-anchor="middle" x="160.75" y="-114.45" font-family="Helvetica,sans-Serif" font-weight="bold" font-size="9.00">src</text>
</g>
<g id="clust12" class="cluster">
<title>cluster_packages/runtime</title>
<path fill="#ffffff" stroke="black" stroke-width="2" d="M355.5,-16C355.5,-16 748.25,-16 748.25,-16 754.25,-16 760.25,-22 760.25,-28 760.25,-28 760.25,-178 760.25,-178 760.25,-184 754.25,-190 748.25,-190 748.25,-190 355.5,-190 355.5,-190 349.5,-190 343.5,-184 343.5,-178 343.5,-178 343.5,-28 343.5,-28 343.5,-22 349.5,-16 355.5,-16"/>
<text xml:space="preserve" text-anchor="middle" x="551.88" y="-177.45" font-family="Helvetica,sans-Serif" font-weight="bold" font-size="9.00">runtime</text>
</g>
<g id="clust13" class="cluster">
<title>cluster_packages/runtime/src</title>
<path fill="#ffffff" stroke="black" stroke-width="2" d="M363.5,-24C363.5,-24 740.25,-24 740.25,-24 746.25,-24 752.25,-30 752.25,-36 752.25,-36 752.25,-152 752.25,-152 752.25,-158 746.25,-164 740.25,-164 740.25,-164 363.5,-164 363.5,-164 357.5,-164 351.5,-158 351.5,-152 351.5,-152 351.5,-36 351.5,-36 351.5,-30 357.5,-24 363.5,-24"/>
<text xml:space="preserve" text-anchor="middle" x="551.88" y="-151.45" font-family="Helvetica,sans-Serif" font-weight="bold" font-size="9.00">src</text>
</g>
<g id="clust14" class="cluster">
<title>cluster_packages/store</title>
<path fill="#ffffff" stroke="black" stroke-width="2" d="M108.25,-161C108.25,-161 323.5,-161 323.5,-161 329.5,-161 335.5,-167 335.5,-173 335.5,-173 335.5,-265 335.5,-265 335.5,-271 329.5,-277 323.5,-277 323.5,-277 108.25,-277 108.25,-277 102.25,-277 96.25,-271 96.25,-265 96.25,-265 96.25,-173 96.25,-173 96.25,-167 102.25,-161 108.25,-161"/>
<text xml:space="preserve" text-anchor="middle" x="215.88" y="-264.45" font-family="Helvetica,sans-Serif" font-weight="bold" font-size="9.00">store</text>
</g>
<g id="clust15" class="cluster">
<title>cluster_packages/store/src</title>
<path fill="#ffffff" stroke="black" stroke-width="2" d="M116.25,-169C116.25,-169 315.5,-169 315.5,-169 321.5,-169 327.5,-175 327.5,-181 327.5,-181 327.5,-239 327.5,-239 327.5,-245 321.5,-251 315.5,-251 315.5,-251 116.25,-251 116.25,-251 110.25,-251 104.25,-245 104.25,-239 104.25,-239 104.25,-181 104.25,-181 104.25,-175 110.25,-169 116.25,-169"/>
<text xml:space="preserve" text-anchor="middle" x="215.88" y="-238.45" font-family="Helvetica,sans-Serif" font-weight="bold" font-size="9.00">src</text>
</g>
<!-- packages/core/src/define/define&#45;workflow.ts -->
<g id="node1" class="node">
<title>packages/core/src/define/define&#45;workflow.ts</title>
<g id="a_node1"><a xlink:href="packages/core/src/define/define-workflow.ts" xlink:title="define&#45;workflow.ts">
<path fill="#ddfeff" stroke="black" d="M865.46,-239.88C865.46,-239.88 788.54,-239.88 788.54,-239.88 785.58,-239.88 782.62,-236.92 782.62,-233.96 782.62,-233.96 782.62,-228.04 782.62,-228.04 782.62,-225.08 785.58,-222.12 788.54,-222.12 788.54,-222.12 865.46,-222.12 865.46,-222.12 868.42,-222.12 871.38,-225.08 871.38,-228.04 871.38,-228.04 871.38,-233.96 871.38,-233.96 871.38,-236.92 868.42,-239.88 865.46,-239.88"/>
<text xml:space="preserve" text-anchor="start" x="790.62" y="-228.38" font-family="Helvetica,sans-Serif" font-size="9.00">define&#45;workflow.ts</text>
</a>
</g>
</g>
<!-- packages/core/src/engine/handle&#45;webhook.ts -->
<g id="node2" class="node">
<title>packages/core/src/engine/handle&#45;webhook.ts</title>
<g id="a_node2"><a xlink:href="packages/core/src/engine/handle-webhook.ts" xlink:title="handle&#45;webhook.ts">
<path fill="#ddfeff" stroke="black" d="M868.08,-299.88C868.08,-299.88 785.92,-299.88 785.92,-299.88 782.96,-299.88 780,-296.92 780,-293.96 780,-293.96 780,-288.04 780,-288.04 780,-285.08 782.96,-282.12 785.92,-282.12 785.92,-282.12 868.08,-282.12 868.08,-282.12 871.04,-282.12 874,-285.08 874,-288.04 874,-288.04 874,-293.96 874,-293.96 874,-296.92 871.04,-299.88 868.08,-299.88"/>
<text xml:space="preserve" text-anchor="start" x="788" y="-288.38" font-family="Helvetica,sans-Serif" font-size="9.00">handle&#45;webhook.ts</text>
</a>
</g>
</g>
<!-- packages/core/src/engine/run&#45;workflow.ts -->
<g id="node3" class="node">
<title>packages/core/src/engine/run&#45;workflow.ts</title>
<g id="a_node3"><a xlink:href="packages/core/src/engine/run-workflow.ts" xlink:title="run&#45;workflow.ts">
<path fill="#ddfeff" stroke="black" d="M968.46,-299.88C968.46,-299.88 903.54,-299.88 903.54,-299.88 900.58,-299.88 897.62,-296.92 897.62,-293.96 897.62,-293.96 897.62,-288.04 897.62,-288.04 897.62,-285.08 900.58,-282.12 903.54,-282.12 903.54,-282.12 968.46,-282.12 968.46,-282.12 971.42,-282.12 974.38,-285.08 974.38,-288.04 974.38,-288.04 974.38,-293.96 974.38,-293.96 974.38,-296.92 971.42,-299.88 968.46,-299.88"/>
<text xml:space="preserve" text-anchor="start" x="905.62" y="-288.38" font-family="Helvetica,sans-Serif" font-size="9.00">run&#45;workflow.ts</text>
</a>
</g>
</g>
<!-- packages/core/src/engine/handle&#45;webhook.ts&#45;&gt;packages/core/src/engine/run&#45;workflow.ts -->
<g id="edge1" class="edge">
<title>packages/core/src/engine/handle&#45;webhook.ts&#45;&gt;packages/core/src/engine/run&#45;workflow.ts</title>
<path fill="none" stroke="#000000" stroke-width="2" stroke-opacity="0.200000" d="M874.31,-291C878.99,-291 883.75,-291 888.43,-291"/>
<polygon fill="#000000" fill-opacity="0.200000" stroke="#000000" stroke-width="2" stroke-opacity="0.200000" points="888.28,-293.1 894.28,-291 888.28,-288.9 888.28,-293.1"/>
</g>
<!-- packages/core/src/types.ts -->
<g id="node4" class="node">
<title>packages/core/src/types.ts</title>
<g id="a_node4"><a xlink:href="packages/core/src/types.ts" xlink:title="types.ts">
<path fill="#ddfeff" stroke="black" d="M1038.46,-343.88C1038.46,-343.88 996.29,-343.88 996.29,-343.88 993.33,-343.88 990.38,-340.92 990.38,-337.96 990.38,-337.96 990.38,-332.04 990.38,-332.04 990.38,-329.08 993.33,-326.12 996.29,-326.12 996.29,-326.12 1038.46,-326.12 1038.46,-326.12 1041.42,-326.12 1044.38,-329.08 1044.38,-332.04 1044.38,-332.04 1044.38,-337.96 1044.38,-337.96 1044.38,-340.92 1041.42,-343.88 1038.46,-343.88"/>
<text xml:space="preserve" text-anchor="start" x="1002" y="-332.38" font-family="Helvetica,sans-Serif" font-size="9.00">types.ts</text>
</a>
</g>
</g>
<!-- packages/core/src/engine/run&#45;workflow.ts&#45;&gt;packages/core/src/types.ts -->
<g id="edge2" class="edge">
<title>packages/core/src/engine/run&#45;workflow.ts&#45;&gt;packages/core/src/types.ts</title>
<path fill="none" stroke="#000000" stroke-width="2" stroke-opacity="0.200000" d="M974.7,-300.31C977.36,-301.42 979.94,-302.64 982.38,-304 989.69,-308.09 996.73,-314.03 1002.48,-319.62"/>
<polygon fill="#000000" fill-opacity="0.200000" stroke="#000000" stroke-width="2" stroke-opacity="0.200000" points="1000.78,-320.89 1006.47,-323.73 1003.79,-317.96 1000.78,-320.89"/>
</g>
<!-- packages/core/src/error.ts -->
<g id="node5" class="node">
<title>packages/core/src/error.ts</title>
<g id="a_node5"><a xlink:href="packages/core/src/error.ts" xlink:title="error.ts">
<path fill="#ddfeff" stroke="black" d="M848.08,-365.88C848.08,-365.88 805.92,-365.88 805.92,-365.88 802.96,-365.88 800,-362.92 800,-359.96 800,-359.96 800,-354.04 800,-354.04 800,-351.08 802.96,-348.12 805.92,-348.12 805.92,-348.12 848.08,-348.12 848.08,-348.12 851.04,-348.12 854,-351.08 854,-354.04 854,-354.04 854,-359.96 854,-359.96 854,-362.92 851.04,-365.88 848.08,-365.88"/>
<text xml:space="preserve" text-anchor="start" x="812.75" y="-354.38" font-family="Helvetica,sans-Serif" font-size="9.00">error.ts</text>
</a>
</g>
</g>
<!-- packages/core/src/index.ts -->
<g id="node6" class="node">
<title>packages/core/src/index.ts</title>
<g id="a_node6"><a xlink:href="packages/core/src/index.ts" xlink:title="index.ts">
<path fill="#ddfeff" stroke="black" d="M717.21,-343.88C717.21,-343.88 675.04,-343.88 675.04,-343.88 672.08,-343.88 669.12,-340.92 669.12,-337.96 669.12,-337.96 669.12,-332.04 669.12,-332.04 669.12,-329.08 672.08,-326.12 675.04,-326.12 675.04,-326.12 717.21,-326.12 717.21,-326.12 720.17,-326.12 723.12,-329.08 723.12,-332.04 723.12,-332.04 723.12,-337.96 723.12,-337.96 723.12,-340.92 720.17,-343.88 717.21,-343.88"/>
<text xml:space="preserve" text-anchor="start" x="680.38" y="-332.38" font-family="Helvetica,sans-Serif" font-size="9.00">index.ts</text>
</a>
</g>
</g>
<!-- packages/core/src/index.ts&#45;&gt;packages/core/src/define/define&#45;workflow.ts -->
<g id="edge3" class="edge">
<title>packages/core/src/index.ts&#45;&gt;packages/core/src/define/define&#45;workflow.ts</title>
<path fill="none" stroke="#000000" stroke-width="2" stroke-opacity="0.200000" d="M706.45,-325.91C719.73,-313.12 745.06,-289.34 768.25,-271 780.19,-261.55 794.23,-251.8 805.47,-244.3"/>
<polygon fill="#000000" fill-opacity="0.200000" stroke="#000000" stroke-width="2" stroke-opacity="0.200000" points="811.72,-242.67 805.56,-244.24 809.4,-239.17 811.72,-242.67"/>
</g>
<!-- packages/core/src/index.ts&#45;&gt;packages/core/src/engine/handle&#45;webhook.ts -->
<g id="edge4" class="edge">
<title>packages/core/src/index.ts&#45;&gt;packages/core/src/engine/handle&#45;webhook.ts</title>
<path fill="none" stroke="#000000" stroke-width="2" stroke-opacity="0.200000" d="M715.76,-325.71C729.9,-318.96 749.94,-309.99 768.25,-304 770.13,-303.39 772.05,-302.79 774,-302.21"/>
<polygon fill="#000000" fill-opacity="0.200000" stroke="#000000" stroke-width="2" stroke-opacity="0.200000" points="780.3,-302.63 773.95,-302.23 779.16,-298.58 780.3,-302.63"/>
</g>
<!-- packages/core/src/index.ts&#45;&gt;packages/core/src/engine/run&#45;workflow.ts -->
<g id="edge5" class="edge">
<title>packages/core/src/index.ts&#45;&gt;packages/core/src/engine/run&#45;workflow.ts</title>
<path fill="none" stroke="#000000" stroke-width="2" stroke-opacity="0.200000" d="M723.59,-332.14C760.29,-327.91 828.57,-319.03 885.75,-306 888.69,-305.33 893.51,-303.97 899.02,-302.33"/>
<polygon fill="#000000" fill-opacity="0.200000" stroke="#000000" stroke-width="2" stroke-opacity="0.200000" points="905.37,-302.6 899.02,-302.33 904.15,-298.58 905.37,-302.6"/>
</g>
<!-- packages/core/src/index.ts&#45;&gt;packages/core/src/types.ts -->
<g id="edge12" class="edge">
<title>packages/core/src/index.ts&#45;&gt;packages/core/src/types.ts</title>
<path fill="none" stroke="#000000" stroke-width="2" stroke-opacity="0.200000" d="M723.52,-335C781.35,-335 919.12,-335 982.91,-335"/>
<polygon fill="#000000" fill-opacity="0.200000" stroke="#000000" stroke-width="2" stroke-opacity="0.200000" points="988.95,-337.1 982.95,-335 988.95,-332.9 988.95,-337.1"/>
</g>
<!-- packages/core/src/index.ts&#45;&gt;packages/core/src/error.ts -->
<g id="edge6" class="edge">
<title>packages/core/src/index.ts&#45;&gt;packages/core/src/error.ts</title>
<path fill="none" stroke="#000000" stroke-width="2" stroke-opacity="0.200000" d="M723.52,-339.51C743.5,-342.92 771.08,-347.62 792.6,-351.3"/>
<polygon fill="#000000" fill-opacity="0.200000" stroke="#000000" stroke-width="2" stroke-opacity="0.200000" points="798.31,-354.4 792.74,-351.32 799.01,-350.26 798.31,-354.4"/>
</g>
<!-- packages/core/src/middleware/create&#45;middleware.ts -->
<g id="node7" class="node">
<title>packages/core/src/middleware/create&#45;middleware.ts</title>
<g id="a_node7"><a xlink:href="packages/core/src/middleware/create-middleware.ts" xlink:title="create&#45;middleware.ts">
<path fill="#ddfeff" stroke="black" d="M871.83,-399.88C871.83,-399.88 782.17,-399.88 782.17,-399.88 779.21,-399.88 776.25,-396.92 776.25,-393.96 776.25,-393.96 776.25,-388.04 776.25,-388.04 776.25,-385.08 779.21,-382.12 782.17,-382.12 782.17,-382.12 871.83,-382.12 871.83,-382.12 874.79,-382.12 877.75,-385.08 877.75,-388.04 877.75,-388.04 877.75,-393.96 877.75,-393.96 877.75,-396.92 874.79,-399.88 871.83,-399.88"/>
<text xml:space="preserve" text-anchor="start" x="784.25" y="-388.38" font-family="Helvetica,sans-Serif" font-size="9.00">create&#45;middleware.ts</text>
</a>
</g>
</g>
<!-- packages/core/src/index.ts&#45;&gt;packages/core/src/middleware/create&#45;middleware.ts -->
<g id="edge7" class="edge">
<title>packages/core/src/index.ts&#45;&gt;packages/core/src/middleware/create&#45;middleware.ts</title>
<path fill="none" stroke="#000000" stroke-width="2" stroke-opacity="0.200000" d="M709.57,-344.25C723.28,-354 746.3,-369.17 768.25,-378 769.5,-378.5 770.78,-378.99 772.07,-379.46"/>
<polygon fill="#000000" fill-opacity="0.200000" stroke="#000000" stroke-width="2" stroke-opacity="0.200000" points="777.04,-383.34 772.02,-379.44 778.37,-379.36 777.04,-383.34"/>
</g>
<!-- packages/core/src/registry/select&#45;version.ts -->
<g id="node8" class="node">
<title>packages/core/src/registry/select&#45;version.ts</title>
<g id="a_node8"><a xlink:href="packages/core/src/registry/select-version.ts" xlink:title="select&#45;version.ts">
<path fill="#ddfeff" stroke="black" d="M862.08,-459.88C862.08,-459.88 791.92,-459.88 791.92,-459.88 788.96,-459.88 786,-456.92 786,-453.96 786,-453.96 786,-448.04 786,-448.04 786,-445.08 788.96,-442.12 791.92,-442.12 791.92,-442.12 862.08,-442.12 862.08,-442.12 865.04,-442.12 868,-445.08 868,-448.04 868,-448.04 868,-453.96 868,-453.96 868,-456.92 865.04,-459.88 862.08,-459.88"/>
<text xml:space="preserve" text-anchor="start" x="794" y="-448.38" font-family="Helvetica,sans-Serif" font-size="9.00">select&#45;version.ts</text>
</a>
</g>
</g>
<!-- packages/core/src/index.ts&#45;&gt;packages/core/src/registry/select&#45;version.ts -->
<g id="edge8" class="edge">
<title>packages/core/src/index.ts&#45;&gt;packages/core/src/registry/select&#45;version.ts</title>
<path fill="none" stroke="#000000" stroke-width="2" stroke-opacity="0.200000" d="M701.73,-344.1C711.52,-362.62 736.16,-404.93 768.25,-429 773.42,-432.88 779.35,-436.15 785.4,-438.88"/>
<polygon fill="#000000" fill-opacity="0.200000" stroke="#000000" stroke-width="2" stroke-opacity="0.200000" points="790.25,-443.19 785.53,-438.93 791.87,-439.32 790.25,-443.19"/>
</g>
<!-- packages/core/src/result.ts -->
<g id="node9" class="node">
<title>packages/core/src/result.ts</title>
<g id="a_node9"><a xlink:href="packages/core/src/result.ts" xlink:title="result.ts">
<path fill="#ddfeff" stroke="black" d="M848.08,-511.88C848.08,-511.88 805.92,-511.88 805.92,-511.88 802.96,-511.88 800,-508.92 800,-505.96 800,-505.96 800,-500.04 800,-500.04 800,-497.08 802.96,-494.12 805.92,-494.12 805.92,-494.12 848.08,-494.12 848.08,-494.12 851.04,-494.12 854,-497.08 854,-500.04 854,-500.04 854,-505.96 854,-505.96 854,-508.92 851.04,-511.88 848.08,-511.88"/>
<text xml:space="preserve" text-anchor="start" x="811.25" y="-500.38" font-family="Helvetica,sans-Serif" font-size="9.00">result.ts</text>
</a>
</g>
</g>
<!-- packages/core/src/index.ts&#45;&gt;packages/core/src/result.ts -->
<g id="edge9" class="edge">
<title>packages/core/src/index.ts&#45;&gt;packages/core/src/result.ts</title>
<path fill="none" stroke="#000000" stroke-width="2" stroke-opacity="0.200000" d="M698.56,-344.33C703.22,-371.26 720.47,-449.73 768.25,-489 775.17,-494.69 784.03,-498.13 792.73,-500.19"/>
<polygon fill="#000000" fill-opacity="0.200000" stroke="#000000" stroke-width="2" stroke-opacity="0.200000" points="798.24,-503.43 792.76,-500.2 799.06,-499.31 798.24,-503.43"/>
</g>
<!-- packages/core/src/run&#45;store/in&#45;memory.ts -->
<g id="node10" class="node">
<title>packages/core/src/run&#45;store/in&#45;memory.ts</title>
<g id="a_node10"><a xlink:href="packages/core/src/run-store/in-memory.ts" xlink:title="in&#45;memory.ts">
<path fill="#ddfeff" stroke="black" d="M964.33,-451.88C964.33,-451.88 907.67,-451.88 907.67,-451.88 904.71,-451.88 901.75,-448.92 901.75,-445.96 901.75,-445.96 901.75,-440.04 901.75,-440.04 901.75,-437.08 904.71,-434.12 907.67,-434.12 907.67,-434.12 964.33,-434.12 964.33,-434.12 967.29,-434.12 970.25,-437.08 970.25,-440.04 970.25,-440.04 970.25,-445.96 970.25,-445.96 970.25,-448.92 967.29,-451.88 964.33,-451.88"/>
<text xml:space="preserve" text-anchor="start" x="909.75" y="-440.38" font-family="Helvetica,sans-Serif" font-size="9.00">in&#45;memory.ts</text>
</a>
</g>
</g>
<!-- packages/core/src/index.ts&#45;&gt;packages/core/src/run&#45;store/in&#45;memory.ts -->
<g id="edge10" class="edge">
<title>packages/core/src/index.ts&#45;&gt;packages/core/src/run&#45;store/in&#45;memory.ts</title>
<path fill="none" stroke="#000000" stroke-width="2" stroke-opacity="0.200000" d="M697.34,-343.96C698.63,-374.73 707.49,-476.42 768.25,-518 789.8,-532.74 862.77,-530.4 885.75,-518 908.86,-505.53 922.9,-476.95 929.78,-458.89"/>
<polygon fill="#000000" fill-opacity="0.200000" stroke="#000000" stroke-width="2" stroke-opacity="0.200000" points="933.79,-453.97 929.78,-458.9 929.84,-452.55 933.79,-453.97"/>
</g>
<!-- packages/core/src/server/index.ts -->
<g id="node11" class="node">
<title>packages/core/src/server/index.ts</title>
<g id="a_node11"><a xlink:href="packages/core/src/server/index.ts" xlink:title="index.ts">
<path fill="#ddfeff" stroke="black" d="M848.08,-559.88C848.08,-559.88 805.92,-559.88 805.92,-559.88 802.96,-559.88 800,-556.92 800,-553.96 800,-553.96 800,-548.04 800,-548.04 800,-545.08 802.96,-542.12 805.92,-542.12 805.92,-542.12 848.08,-542.12 848.08,-542.12 851.04,-542.12 854,-545.08 854,-548.04 854,-548.04 854,-553.96 854,-553.96 854,-556.92 851.04,-559.88 848.08,-559.88"/>
<text xml:space="preserve" text-anchor="start" x="811.25" y="-548.38" font-family="Helvetica,sans-Serif" font-size="9.00">index.ts</text>
</a>
</g>
</g>
<!-- packages/core/src/index.ts&#45;&gt;packages/core/src/server/index.ts -->
<g id="edge11" class="edge">
<title>packages/core/src/index.ts&#45;&gt;packages/core/src/server/index.ts</title>
<path fill="none" stroke="#000000" stroke-width="2" stroke-opacity="0.200000" d="M697.36,-343.95C698.71,-375.72 707.73,-484.1 768.25,-538 774.97,-543.99 783.85,-547.4 792.63,-549.3"/>
<polygon fill="#000000" fill-opacity="0.200000" stroke="#000000" stroke-width="2" stroke-opacity="0.200000" points="798.26,-552.41 792.71,-549.31 798.98,-548.27 798.26,-552.41"/>
</g>
<!-- packages/core/src/run&#45;store/in&#45;memory.ts&#45;&gt;packages/core/src/types.ts -->
<g id="edge13" class="edge">
<title>packages/core/src/run&#45;store/in&#45;memory.ts&#45;&gt;packages/core/src/types.ts</title>
<path fill="none" stroke="#000000" stroke-width="2" stroke-opacity="0.200000" d="M970.68,-437.34C974.97,-435.53 979.03,-433.14 982.38,-430 1004.1,-409.64 1011.96,-374.44 1014.8,-353.08"/>
<polygon fill="#000000" fill-opacity="0.200000" stroke="#000000" stroke-width="2" stroke-opacity="0.200000" points="1016.86,-353.54 1015.44,-347.35 1012.68,-353.08 1016.86,-353.54"/>
</g>
<!-- packages/fluent/src/bindTanStack.ts -->
<g id="node12" class="node">
<title>packages/fluent/src/bindTanStack.ts</title>
<g id="a_node12"><a xlink:href="packages/fluent/src/bindTanStack.ts" xlink:title="bindTanStack.ts">
<path fill="#ddfeff" stroke="black" d="M173.58,-100.88C173.58,-100.88 104.92,-100.88 104.92,-100.88 101.96,-100.88 99,-97.92 99,-94.96 99,-94.96 99,-89.04 99,-89.04 99,-86.08 101.96,-83.12 104.92,-83.12 104.92,-83.12 173.58,-83.12 173.58,-83.12 176.54,-83.12 179.5,-86.08 179.5,-89.04 179.5,-89.04 179.5,-94.96 179.5,-94.96 179.5,-97.92 176.54,-100.88 173.58,-100.88"/>
<text xml:space="preserve" text-anchor="start" x="107" y="-89.38" font-family="Helvetica,sans-Serif" font-size="9.00">bindTanStack.ts</text>
</a>
</g>
</g>
<!-- packages/runtime/src/index.ts -->
<g id="node13" class="node">
<title>packages/runtime/src/index.ts</title>
<g id="a_node13"><a xlink:href="packages/runtime/src/index.ts" xlink:title="index.ts">
<path fill="#ddfeff" stroke="black" d="M407.58,-103.88C407.58,-103.88 365.42,-103.88 365.42,-103.88 362.46,-103.88 359.5,-100.92 359.5,-97.96 359.5,-97.96 359.5,-92.04 359.5,-92.04 359.5,-89.08 362.46,-86.12 365.42,-86.12 365.42,-86.12 407.58,-86.12 407.58,-86.12 410.54,-86.12 413.5,-89.08 413.5,-92.04 413.5,-92.04 413.5,-97.96 413.5,-97.96 413.5,-100.92 410.54,-103.88 407.58,-103.88"/>
<text xml:space="preserve" text-anchor="start" x="370.75" y="-92.38" font-family="Helvetica,sans-Serif" font-size="9.00">index.ts</text>
</a>
</g>
</g>
<!-- packages/fluent/src/bindTanStack.ts&#45;&gt;packages/runtime/src/index.ts -->
<g id="edge14" class="edge">
<title>packages/fluent/src/bindTanStack.ts&#45;&gt;packages/runtime/src/index.ts</title>
<path fill="none" stroke="#000000" stroke-width="2" stroke-opacity="0.200000" d="M179.93,-92.49C227.11,-93.06 305.13,-94.02 350.27,-94.57"/>
<polygon fill="#000000" fill-opacity="0.200000" stroke="#000000" stroke-width="2" stroke-opacity="0.200000" points="350.05,-96.67 356.08,-94.64 350.11,-92.47 350.05,-96.67"/>
</g>
<!-- packages/runtime/src/index.ts&#45;&gt;packages/core/src/index.ts -->
<g id="edge27" class="edge">
<title>packages/runtime/src/index.ts&#45;&gt;packages/core/src/index.ts</title>
<path fill="none" stroke="#000000" stroke-width="2" stroke-opacity="0.200000" d="M403.82,-104.18C407.34,-106.7 410.8,-109.67 413.5,-113 422.91,-124.61 417.17,-132.34 426.5,-144 496.28,-231.19 615.77,-296.44 668.64,-322.54"/>
<polygon fill="#000000" fill-opacity="0.200000" stroke="#000000" stroke-width="2" stroke-opacity="0.200000" points="673.23,-327.12 668.76,-322.59 675.07,-323.34 673.23,-327.12"/>
</g>
<!-- packages/runtime/src/define&#45;runtime.ts -->
<g id="node17" class="node">
<title>packages/runtime/src/define&#45;runtime.ts</title>
<g id="a_node17"><a xlink:href="packages/runtime/src/define-runtime.ts" xlink:title="define&#45;runtime.ts">
<path fill="#ddfeff" stroke="black" d="M519.46,-77.88C519.46,-77.88 447.04,-77.88 447.04,-77.88 444.08,-77.88 441.12,-74.92 441.12,-71.96 441.12,-71.96 441.12,-66.04 441.12,-66.04 441.12,-63.08 444.08,-60.12 447.04,-60.12 447.04,-60.12 519.46,-60.12 519.46,-60.12 522.42,-60.12 525.38,-63.08 525.38,-66.04 525.38,-66.04 525.38,-71.96 525.38,-71.96 525.38,-74.92 522.42,-77.88 519.46,-77.88"/>
<text xml:space="preserve" text-anchor="start" x="449.12" y="-66.38" font-family="Helvetica,sans-Serif" font-size="9.00">define&#45;runtime.ts</text>
</a>
</g>
</g>
<!-- packages/runtime/src/index.ts&#45;&gt;packages/runtime/src/define&#45;runtime.ts -->
<g id="edge22" class="edge">
<title>packages/runtime/src/index.ts&#45;&gt;packages/runtime/src/define&#45;runtime.ts</title>
<path fill="none" stroke="#000000" stroke-width="2" stroke-opacity="0.200000" d="M413.92,-87.5C418.13,-86.32 422.43,-85.12 426.5,-84 431.04,-82.75 435.8,-81.45 440.54,-80.16"/>
<polygon fill="#000000" fill-opacity="0.200000" stroke="#000000" stroke-width="2" stroke-opacity="0.200000" points="447.02,-80.59 440.68,-80.13 445.92,-76.53 447.02,-80.59"/>
</g>
<!-- packages/runtime/src/runtime&#45;driver.ts -->
<g id="node18" class="node">
<title>packages/runtime/src/runtime&#45;driver.ts</title>
<g id="a_node18"><a xlink:href="packages/runtime/src/runtime-driver.ts" xlink:title="runtime&#45;driver.ts">
<path fill="#ddfeff" stroke="black" d="M629.08,-70.88C629.08,-70.88 558.92,-70.88 558.92,-70.88 555.96,-70.88 553,-67.92 553,-64.96 553,-64.96 553,-59.04 553,-59.04 553,-56.08 555.96,-53.12 558.92,-53.12 558.92,-53.12 629.08,-53.12 629.08,-53.12 632.04,-53.12 635,-56.08 635,-59.04 635,-59.04 635,-64.96 635,-64.96 635,-67.92 632.04,-70.88 629.08,-70.88"/>
<text xml:space="preserve" text-anchor="start" x="561" y="-59.38" font-family="Helvetica,sans-Serif" font-size="9.00">runtime&#45;driver.ts</text>
</a>
</g>
</g>
<!-- packages/runtime/src/index.ts&#45;&gt;packages/runtime/src/runtime&#45;driver.ts -->
<g id="edge25" class="edge">
<title>packages/runtime/src/index.ts&#45;&gt;packages/runtime/src/runtime&#45;driver.ts</title>
<path fill="none" stroke="#000000" stroke-width="2" stroke-opacity="0.200000" d="M393.01,-85.74C399.56,-75.76 411.51,-60.43 426.5,-54 467.77,-36.3 520.17,-42.99 555.06,-51.01"/>
<polygon fill="#000000" fill-opacity="0.200000" stroke="#000000" stroke-width="2" stroke-opacity="0.200000" points="560.33,-54.44 554.98,-51 561.31,-50.35 560.33,-54.44"/>
</g>
<!-- packages/runtime/src/in&#45;memory&#45;store.ts -->
<g id="node19" class="node">
<title>packages/runtime/src/in&#45;memory&#45;store.ts</title>
<g id="a_node19"><a xlink:href="packages/runtime/src/in-memory-store.ts" xlink:title="in&#45;memory&#45;store.ts">
<path fill="#ddfeff" stroke="black" d="M523.21,-107.88C523.21,-107.88 443.29,-107.88 443.29,-107.88 440.33,-107.88 437.38,-104.92 437.38,-101.96 437.38,-101.96 437.38,-96.04 437.38,-96.04 437.38,-93.08 440.33,-90.12 443.29,-90.12 443.29,-90.12 523.21,-90.12 523.21,-90.12 526.17,-90.12 529.12,-93.08 529.12,-96.04 529.12,-96.04 529.12,-101.96 529.12,-101.96 529.12,-104.92 526.17,-107.88 523.21,-107.88"/>
<text xml:space="preserve" text-anchor="start" x="445.38" y="-96.38" font-family="Helvetica,sans-Serif" font-size="9.00">in&#45;memory&#45;store.ts</text>
</a>
</g>
</g>
<!-- packages/runtime/src/index.ts&#45;&gt;packages/runtime/src/in&#45;memory&#45;store.ts -->
<g id="edge23" class="edge">
<title>packages/runtime/src/index.ts&#45;&gt;packages/runtime/src/in&#45;memory&#45;store.ts</title>
<path fill="none" stroke="#000000" stroke-width="2" stroke-opacity="0.200000" d="M413.89,-96.11C418.98,-96.33 424.46,-96.56 430.04,-96.8"/>
<polygon fill="#000000" fill-opacity="0.200000" stroke="#000000" stroke-width="2" stroke-opacity="0.200000" points="436.04,-99.15 430.13,-96.8 436.21,-94.95 436.04,-99.15"/>
</g>
<!-- packages/runtime/src/run&#45;store&#45;adapter.ts -->
<g id="node20" class="node">
<title>packages/runtime/src/run&#45;store&#45;adapter.ts</title>
<g id="a_node20"><a xlink:href="packages/runtime/src/run-store-adapter.ts" xlink:title="run&#45;store&#45;adapter.ts">
<path fill="#ddfeff" stroke="black" d="M738.33,-59.88C738.33,-59.88 653.92,-59.88 653.92,-59.88 650.96,-59.88 648,-56.92 648,-53.96 648,-53.96 648,-48.04 648,-48.04 648,-45.08 650.96,-42.12 653.92,-42.12 653.92,-42.12 738.33,-42.12 738.33,-42.12 741.29,-42.12 744.25,-45.08 744.25,-48.04 744.25,-48.04 744.25,-53.96 744.25,-53.96 744.25,-56.92 741.29,-59.88 738.33,-59.88"/>
<text xml:space="preserve" text-anchor="start" x="656" y="-48.38" font-family="Helvetica,sans-Serif" font-size="9.00">run&#45;store&#45;adapter.ts</text>
</a>
</g>
</g>
<!-- packages/runtime/src/index.ts&#45;&gt;packages/runtime/src/run&#45;store&#45;adapter.ts -->
<g id="edge24" class="edge">
<title>packages/runtime/src/index.ts&#45;&gt;packages/runtime/src/run&#45;store&#45;adapter.ts</title>
<path fill="none" stroke="#000000" stroke-width="2" stroke-opacity="0.200000" d="M390.82,-85.89C396.11,-72.93 407.78,-49.67 426.5,-40 502.89,-0.52 608.45,-23.56 661.64,-39.58"/>
<polygon fill="#000000" fill-opacity="0.200000" stroke="#000000" stroke-width="2" stroke-opacity="0.200000" points="666.9,-43.4 661.79,-39.63 668.14,-39.39 666.9,-43.4"/>
</g>
<!-- packages/runtime/src/schedule&#45;materializer.ts -->
<g id="node21" class="node">
<title>packages/runtime/src/schedule&#45;materializer.ts</title>
<g id="a_node21"><a xlink:href="packages/runtime/src/schedule-materializer.ts" xlink:title="schedule&#45;materializer.ts">
<path fill="#ddfeff" stroke="black" d="M534.08,-137.88C534.08,-137.88 432.42,-137.88 432.42,-137.88 429.46,-137.88 426.5,-134.92 426.5,-131.96 426.5,-131.96 426.5,-126.04 426.5,-126.04 426.5,-123.08 429.46,-120.12 432.42,-120.12 432.42,-120.12 534.08,-120.12 534.08,-120.12 537.04,-120.12 540,-123.08 540,-126.04 540,-126.04 540,-131.96 540,-131.96 540,-134.92 537.04,-137.88 534.08,-137.88"/>
<text xml:space="preserve" text-anchor="start" x="434.5" y="-126.38" font-family="Helvetica,sans-Serif" font-size="9.00">schedule&#45;materializer.ts</text>
</a>
</g>
</g>
<!-- packages/runtime/src/index.ts&#45;&gt;packages/runtime/src/schedule&#45;materializer.ts -->
<g id="edge26" class="edge">
<title>packages/runtime/src/index.ts&#45;&gt;packages/runtime/src/schedule&#45;materializer.ts</title>
<path fill="none" stroke="#000000" stroke-width="2" stroke-opacity="0.200000" d="M404.66,-104.24C411.35,-107.6 419.16,-111.25 426.5,-114 429.96,-115.3 433.58,-116.53 437.25,-117.69"/>
<polygon fill="#000000" fill-opacity="0.200000" stroke="#000000" stroke-width="2" stroke-opacity="0.200000" points="442.29,-121.42 437.16,-117.67 443.51,-117.4 442.29,-121.42"/>
</g>
<!-- packages/fluent/src/definitions.ts -->
<g id="node14" class="node">
<title>packages/fluent/src/definitions.ts</title>
<g id="a_node14"><a xlink:href="packages/fluent/src/definitions.ts" xlink:title="definitions.ts">
<path fill="#ddfeff" stroke="black" d="M283.58,-70.88C283.58,-70.88 228.42,-70.88 228.42,-70.88 225.46,-70.88 222.5,-67.92 222.5,-64.96 222.5,-64.96 222.5,-59.04 222.5,-59.04 222.5,-56.08 225.46,-53.12 228.42,-53.12 228.42,-53.12 283.58,-53.12 283.58,-53.12 286.54,-53.12 289.5,-56.08 289.5,-59.04 289.5,-59.04 289.5,-64.96 289.5,-64.96 289.5,-67.92 286.54,-70.88 283.58,-70.88"/>
<text xml:space="preserve" text-anchor="start" x="230.5" y="-59.38" font-family="Helvetica,sans-Serif" font-size="9.00">definitions.ts</text>
</a>
</g>
</g>
<!-- packages/fluent/src/definitions.ts&#45;&gt;packages/runtime/src/index.ts -->
<g id="edge15" class="edge">
<title>packages/fluent/src/definitions.ts&#45;&gt;packages/runtime/src/index.ts</title>
<path fill="none" stroke="#000000" stroke-width="2" stroke-opacity="0.200000" d="M289.76,-70.41C308.37,-75.19 331.68,-81.18 350.63,-86.05"/>
<polygon fill="#000000" fill-opacity="0.200000" stroke="#000000" stroke-width="2" stroke-opacity="0.200000" points="350.01,-88.05 356.34,-87.51 351.05,-83.98 350.01,-88.05"/>
</g>
<!-- packages/fluent/src/index.ts -->
<g id="node15" class="node">
<title>packages/fluent/src/index.ts</title>
<g id="a_node15"><a xlink:href="packages/fluent/src/index.ts" xlink:title="index.ts">
<path fill="#ddfeff" stroke="black" d="M80.08,-70.88C80.08,-70.88 37.92,-70.88 37.92,-70.88 34.96,-70.88 32,-67.92 32,-64.96 32,-64.96 32,-59.04 32,-59.04 32,-56.08 34.96,-53.12 37.92,-53.12 37.92,-53.12 80.08,-53.12 80.08,-53.12 83.04,-53.12 86,-56.08 86,-59.04 86,-59.04 86,-64.96 86,-64.96 86,-67.92 83.04,-70.88 80.08,-70.88"/>
<text xml:space="preserve" text-anchor="start" x="43.25" y="-59.38" font-family="Helvetica,sans-Serif" font-size="9.00">index.ts</text>
</a>
</g>
</g>
<!-- packages/fluent/src/index.ts&#45;&gt;packages/fluent/src/bindTanStack.ts -->
<g id="edge16" class="edge">
<title>packages/fluent/src/index.ts&#45;&gt;packages/fluent/src/bindTanStack.ts</title>
<path fill="none" stroke="#000000" stroke-width="2" stroke-opacity="0.200000" d="M81.78,-71.22C86.53,-73.17 91.55,-75.19 96.25,-77 99.01,-78.06 101.89,-79.15 104.78,-80.22"/>
<polygon fill="#000000" fill-opacity="0.200000" stroke="#000000" stroke-width="2" stroke-opacity="0.200000" points="109.86,-84.3 104.94,-80.27 111.3,-80.36 109.86,-84.3"/>
</g>
<!-- packages/fluent/src/index.ts&#45;&gt;packages/fluent/src/definitions.ts -->
<g id="edge17" class="edge">
<title>packages/fluent/src/index.ts&#45;&gt;packages/fluent/src/definitions.ts</title>
<path fill="none" stroke="#000000" stroke-width="2" stroke-opacity="0.200000" d="M78.38,-52.77C83.97,-50.4 90.24,-48.19 96.25,-47 136.43,-39.02 183.2,-45.27 215.52,-51.98"/>
<polygon fill="#000000" fill-opacity="0.200000" stroke="#000000" stroke-width="2" stroke-opacity="0.200000" points="220.77,-55.25 215.34,-51.94 221.65,-51.15 220.77,-55.25"/>
</g>
<!-- packages/fluent/src/interface.ts -->
<g id="node16" class="node">
<title>packages/fluent/src/interface.ts</title>
<g id="a_node16"><a xlink:href="packages/fluent/src/interface.ts" xlink:title="interface.ts">
<path fill="#ddfeff" stroke="black" d="M163.46,-70.88C163.46,-70.88 115.04,-70.88 115.04,-70.88 112.08,-70.88 109.12,-67.92 109.12,-64.96 109.12,-64.96 109.12,-59.04 109.12,-59.04 109.12,-56.08 112.08,-53.12 115.04,-53.12 115.04,-53.12 163.46,-53.12 163.46,-53.12 166.42,-53.12 169.38,-56.08 169.38,-59.04 169.38,-59.04 169.38,-64.96 169.38,-64.96 169.38,-67.92 166.42,-70.88 163.46,-70.88"/>
<text xml:space="preserve" text-anchor="start" x="117.12" y="-59.38" font-family="Helvetica,sans-Serif" font-size="9.00">interface.ts</text>
</a>
</g>
</g>
<!-- packages/fluent/src/index.ts&#45;&gt;packages/fluent/src/interface.ts -->
<g id="edge18" class="edge">
<title>packages/fluent/src/index.ts&#45;&gt;packages/fluent/src/interface.ts</title>
<path fill="none" stroke="#000000" stroke-width="2" stroke-opacity="0.200000" d="M86.49,-62C91.43,-62 96.67,-62 101.84,-62"/>
<polygon fill="#000000" fill-opacity="0.200000" stroke="#000000" stroke-width="2" stroke-opacity="0.200000" points="107.83,-64.1 101.83,-62 107.83,-59.9 107.83,-64.1"/>
</g>
<!-- packages/fluent/src/interface.ts&#45;&gt;packages/fluent/src/definitions.ts -->
<g id="edge19" class="edge">
<title>packages/fluent/src/interface.ts&#45;&gt;packages/fluent/src/definitions.ts</title>
<path fill="none" stroke="#000000" stroke-width="2" stroke-opacity="0.200000" d="M169.8,-62C183.11,-62 199.05,-62 213.53,-62"/>
<polygon fill="#000000" fill-opacity="0.200000" stroke="#000000" stroke-width="2" stroke-opacity="0.200000" points="213.29,-64.1 219.29,-62 213.29,-59.9 213.29,-64.1"/>
</g>
<!-- packages/runtime/src/define&#45;runtime.ts&#45;&gt;packages/runtime/src/runtime&#45;driver.ts -->
<g id="edge20" class="edge">
<title>packages/runtime/src/define&#45;runtime.ts&#45;&gt;packages/runtime/src/runtime&#45;driver.ts</title>
<path fill="none" stroke="#000000" stroke-width="2" stroke-opacity="0.200000" d="M525.67,-66.33C531.64,-65.95 537.83,-65.55 543.93,-65.16"/>
<polygon fill="#000000" fill-opacity="0.200000" stroke="#000000" stroke-width="2" stroke-opacity="0.200000" points="543.9,-67.27 549.75,-64.78 543.63,-63.07 543.9,-67.27"/>
</g>
<!-- packages/runtime/src/runtime&#45;driver.ts&#45;&gt;packages/core/src/index.ts -->
<g id="edge29" class="edge">
<title>packages/runtime/src/runtime&#45;driver.ts&#45;&gt;packages/core/src/index.ts</title>
<path fill="none" stroke="#000000" stroke-width="2" stroke-opacity="0.200000" d="M598.92,-71.12C606.3,-88.36 622.6,-126.97 635,-160 656.48,-217.21 679.24,-286.02 689.51,-317.61"/>
<polygon fill="#000000" fill-opacity="0.200000" stroke="#000000" stroke-width="2" stroke-opacity="0.200000" points="687.39,-317.89 691.24,-322.95 691.39,-316.59 687.39,-317.89"/>
</g>
<!-- packages/runtime/src/runtime&#45;driver.ts&#45;&gt;packages/runtime/src/run&#45;store&#45;adapter.ts -->
<g id="edge28" class="edge">
<title>packages/runtime/src/runtime&#45;driver.ts&#45;&gt;packages/runtime/src/run&#45;store&#45;adapter.ts</title>
<path fill="none" stroke="#000000" stroke-width="2" stroke-opacity="0.200000" d="M635.44,-57.56C636.57,-57.43 637.7,-57.31 638.84,-57.18"/>
<polygon fill="#000000" fill-opacity="0.200000" stroke="#000000" stroke-width="2" stroke-opacity="0.200000" points="638.89,-59.29 644.62,-56.55 638.43,-55.12 638.89,-59.29"/>
</g>
<!-- packages/runtime/src/in&#45;memory&#45;store.ts&#45;&gt;packages/core/src/index.ts -->
<g id="edge21" class="edge">
<title>packages/runtime/src/in&#45;memory&#45;store.ts&#45;&gt;packages/core/src/index.ts</title>
<path fill="none" stroke="#000000" stroke-width="2" stroke-opacity="0.200000" d="M529.52,-108.36C533.21,-109.95 536.76,-111.82 540,-114 619.37,-167.36 670.76,-276.04 688.35,-317.97"/>
<polygon fill="#000000" fill-opacity="0.200000" stroke="#000000" stroke-width="2" stroke-opacity="0.200000" points="686.31,-318.52 690.53,-323.27 690.2,-316.93 686.31,-318.52"/>
</g>
<!-- packages/runtime/src/types.ts -->
<g id="node22" class="node">
<title>packages/runtime/src/types.ts</title>
<g id="a_node22"><a xlink:href="packages/runtime/src/types.ts" xlink:title="types.ts">
<path fill="#ccffcc" stroke="black" d="M407.58,-136.88C407.58,-136.88 365.42,-136.88 365.42,-136.88 362.46,-136.88 359.5,-133.92 359.5,-130.96 359.5,-130.96 359.5,-125.04 359.5,-125.04 359.5,-122.08 362.46,-119.12 365.42,-119.12 365.42,-119.12 407.58,-119.12 407.58,-119.12 410.54,-119.12 413.5,-122.08 413.5,-125.04 413.5,-125.04 413.5,-130.96 413.5,-130.96 413.5,-133.92 410.54,-136.88 407.58,-136.88"/>
<text xml:space="preserve" text-anchor="start" x="371.12" y="-125.38" font-family="Helvetica,sans-Serif" font-size="9.00">types.ts</text>
</a>
</g>
</g>
<!-- packages/store/src/S2WorkflowRuntimeHost.ts -->
<g id="node23" class="node">
<title>packages/store/src/S2WorkflowRuntimeHost.ts</title>
<g id="a_node23"><a xlink:href="packages/store/src/S2WorkflowRuntimeHost.ts" xlink:title="S2WorkflowRuntimeHost.ts">
<path fill="#ddfeff" stroke="black" d="M313.58,-194.88C313.58,-194.88 198.42,-194.88 198.42,-194.88 195.46,-194.88 192.5,-191.92 192.5,-188.96 192.5,-188.96 192.5,-183.04 192.5,-183.04 192.5,-180.08 195.46,-177.12 198.42,-177.12 198.42,-177.12 313.58,-177.12 313.58,-177.12 316.54,-177.12 319.5,-180.08 319.5,-183.04 319.5,-183.04 319.5,-188.96 319.5,-188.96 319.5,-191.92 316.54,-194.88 313.58,-194.88"/>
<text xml:space="preserve" text-anchor="start" x="200.5" y="-183.38" font-family="Helvetica,sans-Serif" font-size="9.00">S2WorkflowRuntimeHost.ts</text>
</a>
</g>
</g>
<!-- packages/store/src/S2WorkflowRuntimeHost.ts&#45;&gt;packages/runtime/src/index.ts -->
<g id="edge30" class="edge">
<title>packages/store/src/S2WorkflowRuntimeHost.ts&#45;&gt;packages/runtime/src/index.ts</title>
<path fill="none" stroke="#000000" stroke-width="2" stroke-opacity="0.200000" d="M274.92,-176.77C292.29,-167.09 318.44,-150.44 335.5,-130 340.85,-123.59 337.49,-118.8 343.5,-113 345.86,-110.72 348.56,-108.7 351.43,-106.93"/>
<polygon fill="#000000" fill-opacity="0.200000" stroke="#000000" stroke-width="2" stroke-opacity="0.200000" points="352.28,-108.85 356.6,-104.19 350.32,-105.14 352.28,-108.85"/>
</g>
<!-- packages/store/src/index.ts -->
<g id="node24" class="node">
<title>packages/store/src/index.ts</title>
<g id="a_node24"><a xlink:href="packages/store/src/index.ts" xlink:title="index.ts">
<path fill="#ddfeff" stroke="black" d="M160.33,-209.88C160.33,-209.88 118.17,-209.88 118.17,-209.88 115.21,-209.88 112.25,-206.92 112.25,-203.96 112.25,-203.96 112.25,-198.04 112.25,-198.04 112.25,-195.08 115.21,-192.12 118.17,-192.12 118.17,-192.12 160.33,-192.12 160.33,-192.12 163.29,-192.12 166.25,-195.08 166.25,-198.04 166.25,-198.04 166.25,-203.96 166.25,-203.96 166.25,-206.92 163.29,-209.88 160.33,-209.88"/>
<text xml:space="preserve" text-anchor="start" x="123.5" y="-198.38" font-family="Helvetica,sans-Serif" font-size="9.00">index.ts</text>
</a>
</g>
</g>
<!-- packages/store/src/index.ts&#45;&gt;packages/store/src/S2WorkflowRuntimeHost.ts -->
<g id="edge31" class="edge">
<title>packages/store/src/index.ts&#45;&gt;packages/store/src/S2WorkflowRuntimeHost.ts</title>
<path fill="none" stroke="#000000" stroke-width="2" stroke-opacity="0.200000" d="M166.58,-197.56C172.43,-196.79 178.91,-195.95 185.61,-195.07"/>
<polygon fill="#000000" fill-opacity="0.200000" stroke="#000000" stroke-width="2" stroke-opacity="0.200000" points="191.65,-196.4 185.43,-195.09 191.11,-192.23 191.65,-196.4"/>
</g>
<!-- packages/store/src/types.ts -->
<g id="node25" class="node">
<title>packages/store/src/types.ts</title>
<g id="a_node25"><a xlink:href="packages/store/src/types.ts" xlink:title="types.ts">
<path fill="#ddfeff" stroke="black" d="M277.08,-224.88C277.08,-224.88 234.92,-224.88 234.92,-224.88 231.96,-224.88 229,-221.92 229,-218.96 229,-218.96 229,-213.04 229,-213.04 229,-210.08 231.96,-207.12 234.92,-207.12 234.92,-207.12 277.08,-207.12 277.08,-207.12 280.04,-207.12 283,-210.08 283,-213.04 283,-213.04 283,-218.96 283,-218.96 283,-221.92 280.04,-224.88 277.08,-224.88"/>
<text xml:space="preserve" text-anchor="start" x="240.62" y="-213.38" font-family="Helvetica,sans-Serif" font-size="9.00">types.ts</text>
</a>
</g>
</g>
<!-- packages/store/src/index.ts&#45;&gt;packages/store/src/types.ts -->
<g id="edge32" class="edge">
<title>packages/store/src/index.ts&#45;&gt;packages/store/src/types.ts</title>
<path fill="none" stroke="#000000" stroke-width="2" stroke-opacity="0.200000" d="M166.58,-204.44C183.05,-206.59 204.41,-209.39 222.01,-211.69"/>
<polygon fill="#000000" fill-opacity="0.200000" stroke="#000000" stroke-width="2" stroke-opacity="0.200000" points="227.53,-214.53 221.86,-211.67 228.08,-210.36 227.53,-214.53"/>
</g>
<!-- packages/store/src/types.ts&#45;&gt;packages/runtime/src/index.ts -->
<g id="edge33" class="edge">
<title>packages/store/src/types.ts&#45;&gt;packages/runtime/src/index.ts</title>
<path fill="none" stroke="#000000" stroke-width="2" stroke-opacity="0.200000" d="M283.46,-218.42C300.83,-218.44 322.64,-215.19 335.5,-201 348.69,-186.45 331.96,-128.89 343.5,-113 346.07,-109.46 349.48,-106.61 353.25,-104.32"/>
<polygon fill="#000000" fill-opacity="0.200000" stroke="#000000" stroke-width="2" stroke-opacity="0.200000" points="359.47,-103.48 353.18,-104.36 357.55,-99.75 359.47,-103.48"/>
</g>
</g>
</svg>
