<?xml version="1.0" encoding="UTF-8" standalone="no"?>
<!DOCTYPE svg PUBLIC "-//W3C//DTD SVG 1.1//EN"
 "http://www.w3.org/Graphics/SVG/1.1/DTD/svg11.dtd">
<!-- Generated by graphviz version 14.1.5 (20260411.2331)
 -->
<!-- Title: dependency&#45;cruiser output Pages: 1 -->
<svg width="590pt" height="208pt"
 viewBox="0.00 0.00 590.00 208.00" xmlns="http://www.w3.org/2000/svg" xmlns:xlink="http://www.w3.org/1999/xlink">
<g id="graph0" class="graph" transform="scale(1 1) rotate(0) translate(4 204)">
<title>dependency&#45;cruiser output</title>
<polygon fill="white" stroke="none" points="-4,4 -4,-204 585.75,-204 585.75,4 -4,4"/>
<g id="clust1" class="cluster">
<title>cluster_packages</title>
<path fill="#ffffff" stroke="black" stroke-width="2" d="M20,-8C20,-8 561.75,-8 561.75,-8 567.75,-8 573.75,-14 573.75,-20 573.75,-20 573.75,-180 573.75,-180 573.75,-186 567.75,-192 561.75,-192 561.75,-192 20,-192 20,-192 14,-192 8,-186 8,-180 8,-180 8,-20 8,-20 8,-14 14,-8 20,-8"/>
<text xml:space="preserve" text-anchor="middle" x="290.88" y="-179.45" font-family="Helvetica,sans-Serif" font-weight="bold" font-size="9.00">packages</text>
</g>
<!-- packages/effect&#45;s2 -->
<g id="node1" class="node">
<title>packages/effect&#45;s2</title>
<g id="a_node1"><a xlink:href="packages/effect-s2" xlink:title="effect&#45;s2">
<polygon fill="#ffffcc" stroke="black" points="299.5,-139.88 247.47,-139.88 245.5,-137.9 245.5,-122.12 297.53,-122.12 299.5,-124.1 299.5,-139.88"/>
<polyline fill="none" stroke="black" points="297.53,-137.9 245.5,-137.9"/>
<polyline fill="none" stroke="black" points="297.53,-137.9 297.53,-122.12"/>
<polyline fill="none" stroke="black" points="297.53,-137.9 299.5,-139.88"/>
<text xml:space="preserve" text-anchor="start" x="255.25" y="-128.38" font-family="Helvetica,sans-Serif" font-size="9.00">effect&#45;s2</text>
</a>
</g>
</g>
<!-- packages/fluent&#45;acp&#45;process -->
<g id="node2" class="node">
<title>packages/fluent&#45;acp&#45;process</title>
<g id="a_node2"><a xlink:href="packages/fluent-acp-process" xlink:title="fluent&#45;acp&#45;process">
<polygon fill="#ffffcc" stroke="black" points="108.88,-40.88 19.1,-40.88 17.12,-38.9 17.12,-23.12 106.9,-23.12 108.88,-25.1 108.88,-40.88"/>
<polyline fill="none" stroke="black" points="106.9,-38.9 17.12,-38.9"/>
<polyline fill="none" stroke="black" points="106.9,-38.9 106.9,-23.12"/>
<polyline fill="none" stroke="black" points="106.9,-38.9 108.88,-40.88"/>
<text xml:space="preserve" text-anchor="start" x="25.12" y="-29.38" font-family="Helvetica,sans-Serif" font-size="9.00">fluent&#45;acp&#45;process</text>
</a>
</g>
</g>
<!-- packages/fluent&#45;firegrid -->
<g id="node3" class="node">
<title>packages/fluent&#45;firegrid</title>
<g id="a_node3"><a xlink:href="packages/fluent-firegrid" xlink:title="fluent&#45;firegrid">
<polygon fill="#ffffcc" stroke="black" points="307.5,-73.88 239.47,-73.88 237.5,-71.9 237.5,-56.12 305.53,-56.12 307.5,-58.1 307.5,-73.88"/>
<polyline fill="none" stroke="black" points="305.53,-71.9 237.5,-71.9"/>
<polyline fill="none" stroke="black" points="305.53,-71.9 305.53,-56.12"/>
<polyline fill="none" stroke="black" points="305.53,-71.9 307.5,-73.88"/>
<text xml:space="preserve" text-anchor="start" x="245.5" y="-62.38" font-family="Helvetica,sans-Serif" font-size="9.00">fluent&#45;firegrid</text>
</a>
</g>
</g>
<!-- packages/tanstack&#45;workflow&#45;core -->
<g id="node4" class="node">
<title>packages/tanstack&#45;workflow&#45;core</title>
<g id="a_node4"><a xlink:href="packages/tanstack-workflow-core" xlink:title="tanstack&#45;workflow&#45;core">
<polygon fill="#ffffcc" stroke="black" points="565.75,-95.88 457.97,-95.88 456,-93.9 456,-78.12 563.78,-78.12 565.75,-80.1 565.75,-95.88"/>
<polyline fill="none" stroke="black" points="563.78,-93.9 456,-93.9"/>
<polyline fill="none" stroke="black" points="563.78,-93.9 563.78,-78.12"/>
<polyline fill="none" stroke="black" points="563.78,-93.9 565.75,-95.88"/>
<text xml:space="preserve" text-anchor="start" x="464" y="-84.38" font-family="Helvetica,sans-Serif" font-size="9.00">tanstack&#45;workflow&#45;core</text>
</a>
</g>
</g>
<!-- packages/fluent&#45;firegrid&#45;&gt;packages/tanstack&#45;workflow&#45;core -->
<g id="edge1" class="edge">
<title>packages/fluent&#45;firegrid&#45;&gt;packages/tanstack&#45;workflow&#45;core</title>
<path fill="none" stroke="#000000" stroke-width="2" stroke-opacity="0.200000" d="M307.74,-64.62C342.09,-64.66 396.43,-65.87 443,-72 450.21,-72.95 457.78,-74.3 465.14,-75.81"/>
<polygon fill="#000000" fill-opacity="0.200000" stroke="#000000" stroke-width="2" stroke-opacity="0.200000" points="464.38,-77.79 470.68,-77 465.26,-73.68 464.38,-77.79"/>
</g>
<!-- packages/tanstack&#45;workflow&#45;runtime -->
<g id="node5" class="node">
<title>packages/tanstack&#45;workflow&#45;runtime</title>
<g id="a_node5"><a xlink:href="packages/tanstack-workflow-runtime" xlink:title="tanstack&#45;workflow&#45;runtime">
<polygon fill="#ccffcc" stroke="black" points="443,-95.88 322.47,-95.88 320.5,-93.9 320.5,-78.12 441.03,-78.12 443,-80.1 443,-95.88"/>
<polyline fill="none" stroke="black" points="441.03,-93.9 320.5,-93.9"/>
<polyline fill="none" stroke="black" points="441.03,-93.9 441.03,-78.12"/>
<polyline fill="none" stroke="black" points="441.03,-93.9 443,-95.88"/>
<text xml:space="preserve" text-anchor="start" x="328.5" y="-84.38" font-family="Helvetica,sans-Serif" font-size="9.00">tanstack&#45;workflow&#45;runtime</text>
</a>
</g>
</g>
<!-- packages/fluent&#45;firegrid&#45;&gt;packages/tanstack&#45;workflow&#45;runtime -->
<g id="edge2" class="edge">
<title>packages/fluent&#45;firegrid&#45;&gt;packages/tanstack&#45;workflow&#45;runtime</title>
<path fill="none" stroke="#000000" stroke-width="2" stroke-opacity="0.200000" d="M307.73,-72.02C313.71,-73.25 320.07,-74.55 326.44,-75.86"/>
<polygon fill="#000000" fill-opacity="0.200000" stroke="#000000" stroke-width="2" stroke-opacity="0.200000" points="325.84,-77.88 332.14,-77.03 326.68,-73.77 325.84,-77.88"/>
</g>
<!-- packages/tanstack&#45;workflow&#45;runtime&#45;&gt;packages/tanstack&#45;workflow&#45;core -->
<g id="edge9" class="edge">
<title>packages/tanstack&#45;workflow&#45;runtime&#45;&gt;packages/tanstack&#45;workflow&#45;core</title>
<path fill="none" stroke="#000000" stroke-width="2" stroke-opacity="0.200000" d="M443.33,-87C444.49,-87 445.64,-87 446.79,-87"/>
<polygon fill="#000000" fill-opacity="0.200000" stroke="#000000" stroke-width="2" stroke-opacity="0.200000" points="446.57,-89.1 452.57,-87 446.57,-84.9 446.57,-89.1"/>
</g>
<!-- packages/fluent&#45;firegrid&#45;http -->
<g id="node6" class="node">
<title>packages/fluent&#45;firegrid&#45;http</title>
<g id="a_node6"><a xlink:href="packages/fluent-firegrid-http" xlink:title="fluent&#45;firegrid&#45;http">
<polygon fill="#ffffcc" stroke="black" points="217.75,-33.88 131.72,-33.88 129.75,-31.9 129.75,-16.12 215.78,-16.12 217.75,-18.1 217.75,-33.88"/>
<polyline fill="none" stroke="black" points="215.78,-31.9 129.75,-31.9"/>
<polyline fill="none" stroke="black" points="215.78,-31.9 215.78,-16.12"/>
<polyline fill="none" stroke="black" points="215.78,-31.9 217.75,-33.88"/>
<text xml:space="preserve" text-anchor="start" x="137.75" y="-22.38" font-family="Helvetica,sans-Serif" font-size="9.00">fluent&#45;firegrid&#45;http</text>
</a>
</g>
</g>
<!-- packages/fluent&#45;firegrid&#45;node -->
<g id="node7" class="node">
<title>packages/fluent&#45;firegrid&#45;node</title>
<g id="a_node7"><a xlink:href="packages/fluent-firegrid-node" xlink:title="fluent&#45;firegrid&#45;node">
<polygon fill="#ffffcc" stroke="black" points="110,-77.88 17.97,-77.88 16,-75.9 16,-60.12 108.03,-60.12 110,-62.1 110,-77.88"/>
<polyline fill="none" stroke="black" points="108.03,-75.9 16,-75.9"/>
<polyline fill="none" stroke="black" points="108.03,-75.9 108.03,-60.12"/>
<polyline fill="none" stroke="black" points="108.03,-75.9 110,-77.88"/>
<text xml:space="preserve" text-anchor="start" x="24" y="-66.38" font-family="Helvetica,sans-Serif" font-size="9.00">fluent&#45;firegrid&#45;node</text>
</a>
</g>
</g>
<!-- packages/fluent&#45;firegrid&#45;node&#45;&gt;packages/fluent&#45;firegrid -->
<g id="edge3" class="edge">
<title>packages/fluent&#45;firegrid&#45;node&#45;&gt;packages/fluent&#45;firegrid</title>
<path fill="none" stroke="#000000" stroke-width="2" stroke-opacity="0.200000" d="M104.46,-59.66C110.64,-58.56 116.97,-57.61 123,-57 167.88,-52.48 179.55,-53.2 224.5,-57 225.79,-57.11 227.1,-57.23 228.41,-57.37"/>
<polygon fill="#000000" fill-opacity="0.200000" stroke="#000000" stroke-width="2" stroke-opacity="0.200000" points="227.97,-59.43 234.19,-58.1 228.49,-55.27 227.97,-59.43"/>
</g>
<!-- packages/fluent&#45;firegrid&#45;node&#45;&gt;packages/fluent&#45;firegrid&#45;http -->
<g id="edge4" class="edge">
<title>packages/fluent&#45;firegrid&#45;node&#45;&gt;packages/fluent&#45;firegrid&#45;http</title>
<path fill="none" stroke="#000000" stroke-width="2" stroke-opacity="0.200000" d="M84.33,-59.63C95.64,-54.53 110.01,-48.2 123,-43 127.75,-41.1 132.79,-39.17 137.77,-37.32"/>
<polygon fill="#000000" fill-opacity="0.200000" stroke="#000000" stroke-width="2" stroke-opacity="0.200000" points="138.28,-39.37 143.19,-35.33 136.83,-35.42 138.28,-39.37"/>
</g>
<!-- packages/fluent&#45;firegrid&#45;s2 -->
<g id="node8" class="node">
<title>packages/fluent&#45;firegrid&#45;s2</title>
<g id="a_node8"><a xlink:href="packages/fluent-firegrid-s2" xlink:title="fluent&#45;firegrid&#45;s2">
<polygon fill="#ffffcc" stroke="black" points="215.12,-91.88 134.35,-91.88 132.38,-89.9 132.38,-74.12 213.15,-74.12 215.12,-76.1 215.12,-91.88"/>
<polyline fill="none" stroke="black" points="213.15,-89.9 132.38,-89.9"/>
<polyline fill="none" stroke="black" points="213.15,-89.9 213.15,-74.12"/>
<polyline fill="none" stroke="black" points="213.15,-89.9 215.12,-91.88"/>
<text xml:space="preserve" text-anchor="start" x="140.38" y="-80.38" font-family="Helvetica,sans-Serif" font-size="9.00">fluent&#45;firegrid&#45;s2</text>
</a>
</g>
</g>
<!-- packages/fluent&#45;firegrid&#45;node&#45;&gt;packages/fluent&#45;firegrid&#45;s2 -->
<g id="edge5" class="edge">
<title>packages/fluent&#45;firegrid&#45;node&#45;&gt;packages/fluent&#45;firegrid&#45;s2</title>
<path fill="none" stroke="#000000" stroke-width="2" stroke-opacity="0.200000" d="M110.44,-74.98C114.69,-75.53 119,-76.08 123.28,-76.63"/>
<polygon fill="#000000" fill-opacity="0.200000" stroke="#000000" stroke-width="2" stroke-opacity="0.200000" points="122.74,-78.68 128.96,-77.36 123.28,-74.51 122.74,-78.68"/>
</g>
<!-- packages/tanstack&#45;workflow&#45;s2 -->
<g id="node9" class="node">
<title>packages/tanstack&#45;workflow&#45;s2</title>
<g id="a_node9"><a xlink:href="packages/tanstack-workflow-s2" xlink:title="tanstack&#45;workflow&#45;s2">
<polygon fill="#ffffcc" stroke="black" points="224.5,-121.88 124.97,-121.88 123,-119.9 123,-104.12 222.53,-104.12 224.5,-106.1 224.5,-121.88"/>
<polyline fill="none" stroke="black" points="222.53,-119.9 123,-119.9"/>
<polyline fill="none" stroke="black" points="222.53,-119.9 222.53,-104.12"/>
<polyline fill="none" stroke="black" points="222.53,-119.9 224.5,-121.88"/>
<text xml:space="preserve" text-anchor="start" x="131" y="-110.38" font-family="Helvetica,sans-Serif" font-size="9.00">tanstack&#45;workflow&#45;s2</text>
</a>
</g>
</g>
<!-- packages/fluent&#45;firegrid&#45;node&#45;&gt;packages/tanstack&#45;workflow&#45;s2 -->
<g id="edge6" class="edge">
<title>packages/fluent&#45;firegrid&#45;node&#45;&gt;packages/tanstack&#45;workflow&#45;s2</title>
<path fill="none" stroke="#000000" stroke-width="2" stroke-opacity="0.200000" d="M80.96,-78.26C92.58,-84.37 108.45,-92.28 123,-98 125.48,-98.98 128.05,-99.93 130.66,-100.84"/>
<polygon fill="#000000" fill-opacity="0.200000" stroke="#000000" stroke-width="2" stroke-opacity="0.200000" points="129.82,-102.78 136.17,-102.69 131.15,-98.79 129.82,-102.78"/>
</g>
<!-- packages/fluent&#45;firegrid&#45;s2&#45;&gt;packages/effect&#45;s2 -->
<g id="edge8" class="edge">
<title>packages/fluent&#45;firegrid&#45;s2&#45;&gt;packages/effect&#45;s2</title>
<path fill="none" stroke="#000000" stroke-width="2" stroke-opacity="0.200000" d="M210.61,-92.3C215.37,-93.97 220.12,-95.87 224.5,-98 234.66,-102.94 245.03,-109.97 253.44,-116.28"/>
<polygon fill="#000000" fill-opacity="0.200000" stroke="#000000" stroke-width="2" stroke-opacity="0.200000" points="252.13,-117.91 258.16,-119.93 254.7,-114.59 252.13,-117.91"/>
</g>
<!-- packages/fluent&#45;firegrid&#45;s2&#45;&gt;packages/fluent&#45;firegrid -->
<g id="edge7" class="edge">
<title>packages/fluent&#45;firegrid&#45;s2&#45;&gt;packages/fluent&#45;firegrid</title>
<path fill="none" stroke="#000000" stroke-width="2" stroke-opacity="0.200000" d="M215.5,-75.42C219.79,-74.62 224.17,-73.81 228.49,-73"/>
<polygon fill="#000000" fill-opacity="0.200000" stroke="#000000" stroke-width="2" stroke-opacity="0.200000" points="228.73,-75.09 234.25,-71.93 227.96,-70.96 228.73,-75.09"/>
</g>
<!-- packages/tanstack&#45;workflow&#45;s2&#45;&gt;packages/effect&#45;s2 -->
<g id="edge10" class="edge">
<title>packages/tanstack&#45;workflow&#45;s2&#45;&gt;packages/effect&#45;s2</title>
<path fill="none" stroke="#000000" stroke-width="2" stroke-opacity="0.200000" d="M224.83,-122.32C228.77,-123.05 232.69,-123.78 236.5,-124.49"/>
<polygon fill="#000000" fill-opacity="0.200000" stroke="#000000" stroke-width="2" stroke-opacity="0.200000" points="235.86,-126.51 242.14,-125.54 236.63,-122.38 235.86,-126.51"/>
</g>
<!-- packages/tanstack&#45;workflow&#45;s2&#45;&gt;packages/tanstack&#45;workflow&#45;core -->
<g id="edge12" class="edge">
<title>packages/tanstack&#45;workflow&#45;s2&#45;&gt;packages/tanstack&#45;workflow&#45;core</title>
<path fill="none" stroke="#000000" stroke-width="2" stroke-opacity="0.200000" d="M224.91,-113.62C278.98,-113.67 367.44,-111.94 443,-102 450.83,-100.97 459.1,-99.46 467.06,-97.8"/>
<polygon fill="#000000" fill-opacity="0.200000" stroke="#000000" stroke-width="2" stroke-opacity="0.200000" points="473.11,-98.64 466.8,-97.85 472.22,-94.53 473.11,-98.64"/>
</g>
<!-- packages/tanstack&#45;workflow&#45;s2&#45;&gt;packages/tanstack&#45;workflow&#45;runtime -->
<g id="edge11" class="edge">
<title>packages/tanstack&#45;workflow&#45;s2&#45;&gt;packages/tanstack&#45;workflow&#45;runtime</title>
<path fill="none" stroke="#000000" stroke-width="2" stroke-opacity="0.200000" d="M224.76,-106.62C229.07,-106.07 233.36,-105.52 237.5,-105 261.53,-101.96 287.84,-98.65 311.28,-95.7"/>
<polygon fill="#000000" fill-opacity="0.200000" stroke="#000000" stroke-width="2" stroke-opacity="0.200000" points="311.41,-97.8 317.1,-94.97 310.89,-93.64 311.41,-97.8"/>
</g>
<!-- packages/observability -->
<g id="node10" class="node">
<title>packages/observability</title>
<g id="a_node10"><a xlink:href="packages/observability" xlink:title="observability">
<polygon fill="#ffffcc" stroke="black" points="207.62,-151.88 141.85,-151.88 139.88,-149.9 139.88,-134.12 205.65,-134.12 207.62,-136.1 207.62,-151.88"/>
<polyline fill="none" stroke="black" points="205.65,-149.9 139.88,-149.9"/>
<polyline fill="none" stroke="black" points="205.65,-149.9 205.65,-134.12"/>
<polyline fill="none" stroke="black" points="205.65,-149.9 207.62,-151.88"/>
<text xml:space="preserve" text-anchor="start" x="147.88" y="-140.38" font-family="Helvetica,sans-Serif" font-size="9.00">observability</text>
</a>
</g>
</g>
<!-- packages/verification -->
<g id="node11" class="node">
<title>packages/verification</title>
<g id="a_node11"><a xlink:href="packages/verification" xlink:title="verification">
<polygon fill="#ffffcc" stroke="black" points="93.12,-121.88 34.85,-121.88 32.88,-119.9 32.88,-104.12 91.15,-104.12 93.12,-106.1 93.12,-121.88"/>
<polyline fill="none" stroke="black" points="91.15,-119.9 32.88,-119.9"/>
<polyline fill="none" stroke="black" points="91.15,-119.9 91.15,-104.12"/>
<polyline fill="none" stroke="black" points="91.15,-119.9 93.12,-121.88"/>
<text xml:space="preserve" text-anchor="start" x="40.88" y="-110.38" font-family="Helvetica,sans-Serif" font-size="9.00">verification</text>
</a>
</g>
</g>
<!-- packages/verification&#45;&gt;packages/effect&#45;s2 -->
<g id="edge13" class="edge">
<title>packages/verification&#45;&gt;packages/effect&#45;s2</title>
<path fill="none" stroke="#000000" stroke-width="2" stroke-opacity="0.200000" d="M72.11,-122.06C82.59,-133.03 102.01,-150.91 123,-158 165.74,-172.44 180.91,-169.63 224.5,-158 234.18,-155.42 243.94,-150.31 252.04,-145.23"/>
<polygon fill="#000000" fill-opacity="0.200000" stroke="#000000" stroke-width="2" stroke-opacity="0.200000" points="253.17,-147 257,-141.92 250.84,-143.5 253.17,-147"/>
</g>
<!-- packages/verification&#45;&gt;packages/fluent&#45;firegrid -->
<g id="edge14" class="edge">
<title>packages/verification&#45;&gt;packages/fluent&#45;firegrid</title>
<path fill="none" stroke="#000000" stroke-width="2" stroke-opacity="0.200000" d="M81.53,-103.76C90.53,-98.59 101.38,-91.64 110,-84 116.86,-77.92 114.77,-72.02 123,-68 140.91,-59.25 191.35,-59.98 228.5,-61.92"/>
<polygon fill="#000000" fill-opacity="0.200000" stroke="#000000" stroke-width="2" stroke-opacity="0.200000" points="228.02,-64 234.13,-62.24 228.26,-59.8 228.02,-64"/>
</g>
<!-- packages/verification&#45;&gt;packages/fluent&#45;firegrid&#45;s2 -->
<g id="edge15" class="edge">
<title>packages/verification&#45;&gt;packages/fluent&#45;firegrid&#45;s2</title>
<path fill="none" stroke="#000000" stroke-width="2" stroke-opacity="0.200000" d="M93.43,-104.88C104.88,-101.72 118.21,-98.05 130.64,-94.62"/>
<polygon fill="#000000" fill-opacity="0.200000" stroke="#000000" stroke-width="2" stroke-opacity="0.200000" points="130.92,-96.72 136.15,-93.1 129.81,-92.67 130.92,-96.72"/>
</g>
<!-- packages/verification&#45;&gt;packages/tanstack&#45;workflow&#45;s2 -->
<g id="edge16" class="edge">
<title>packages/verification&#45;&gt;packages/tanstack&#45;workflow&#45;s2</title>
<path fill="none" stroke="#000000" stroke-width="2" stroke-opacity="0.200000" d="M93.43,-113C99.8,-113 106.75,-113 113.81,-113"/>
<polygon fill="#000000" fill-opacity="0.200000" stroke="#000000" stroke-width="2" stroke-opacity="0.200000" points="113.73,-115.1 119.73,-113 113.73,-110.9 113.73,-115.1"/>
</g>
<!-- packages/verification&#45;&gt;packages/observability -->
<g id="edge17" class="edge">
<title>packages/verification&#45;&gt;packages/observability</title>
<path fill="none" stroke="#000000" stroke-width="2" stroke-opacity="0.200000" d="M93.43,-121.12C104.98,-124.3 118.45,-128.02 130.97,-131.48"/>
<polygon fill="#000000" fill-opacity="0.200000" stroke="#000000" stroke-width="2" stroke-opacity="0.200000" points="130.2,-133.44 136.54,-133.01 131.31,-129.39 130.2,-133.44"/>
</g>
</g>
</svg>
